<svg id="svg" version="1.1" xmlns="http://www.w3.org/2000/svg" xmlns:xlink="http://www.w3.org/1999/xlink" width="400" height="400" viewBox="0, 0, 400,400"><g id="svgg"><path id="path0" d="M196.484 110.041 C 191.207 110.951,181.782 113.500,178.089 115.016 C 177.671 115.187,176.433 114.436,174.315 112.726 L 171.163 110.181 169.859 110.838 C 169.142 111.198,168.136 111.441,167.624 111.376 C 166.901 111.285,167.336 111.836,169.577 113.852 C 171.163 115.279,172.508 116.579,172.566 116.742 C 172.624 116.905,170.251 118.083,167.293 119.360 L 161.914 121.682 161.809 129.736 L 161.703 137.790 158.013 140.601 C 154.742 143.092,154.374 143.494,154.775 144.136 C 155.110 144.672,155.117 145.223,154.801 146.252 C 154.287 147.927,154.360 147.900,158.398 144.952 L 161.133 142.955 161.367 156.341 C 161.621 170.851,161.814 172.319,164.233 178.065 C 168.713 188.710,180.995 200.285,196.211 208.203 L 199.588 209.961 201.845 208.792 C 217.169 200.855,229.365 189.759,234.387 179.182 C 237.493 172.641,237.708 171.106,237.604 156.152 C 237.554 148.901,237.642 142.969,237.800 142.969 C 237.957 142.970,239.492 144.025,241.211 145.315 L 244.336 147.659 244.461 146.004 C 244.529 145.094,244.766 144.237,244.988 144.100 C 245.210 143.963,243.615 142.483,241.445 140.812 L 237.500 137.774 237.500 129.900 L 237.500 122.026 236.572 121.657 C 233.557 120.460,226.192 116.955,226.272 116.755 C 226.324 116.624,227.675 115.393,229.273 114.020 L 232.180 111.523 230.577 111.306 C 229.695 111.187,228.722 110.880,228.415 110.625 C 227.962 110.249,227.246 110.642,224.643 112.692 L 221.431 115.223 220.024 114.635 C 213.260 111.809,200.580 109.334,196.484 110.041 M195.218 124.998 C 197.824 126.586,198.043 127.433,198.051 135.938 C 198.055 140.127,198.188 143.373,198.346 143.151 C 198.756 142.573,199.966 142.676,200.367 143.323 C 200.570 143.651,200.764 140.824,200.848 136.291 C 201.008 127.711,201.224 126.924,203.908 125.148 C 206.460 123.459,209.699 123.873,212.947 126.303 C 214.313 127.325,216.393 128.724,217.570 129.412 C 218.785 130.123,220.052 131.243,220.500 132.002 C 220.934 132.738,222.059 134.056,223.001 134.932 C 224.980 136.772,226.553 139.817,226.559 141.818 C 226.562 142.882,226.874 143.508,227.896 144.499 C 230.919 147.429,232.234 153.458,230.755 157.609 C 230.249 159.026,230.270 159.318,230.983 160.929 C 232.653 164.697,231.810 169.862,228.939 173.449 C 228.333 174.207,227.639 175.747,227.398 176.870 C 226.765 179.824,225.286 181.784,222.111 183.876 C 220.585 184.882,217.817 186.812,215.960 188.165 C 210.336 192.264,207.765 192.991,204.492 191.406 C 201.078 189.754,201.044 189.572,200.850 171.778 C 200.718 159.642,200.579 156.377,200.216 156.873 C 199.796 157.449,199.694 157.451,199.143 156.899 C 198.174 155.931,198.056 157.731,198.051 173.477 C 198.047 187.658,198.040 187.786,197.168 189.066 C 194.244 193.363,190.453 193.254,183.984 188.686 C 181.943 187.244,179.219 185.402,177.930 184.591 C 173.609 181.874,171.484 179.162,171.484 176.364 C 171.484 175.096,171.243 174.524,170.341 173.660 C 167.585 171.019,166.514 165.609,167.924 161.446 C 168.712 159.122,168.719 158.927,168.116 156.572 C 167.015 152.275,167.981 148.203,170.854 145.022 C 171.958 143.800,172.267 143.130,172.274 141.945 C 172.287 139.685,173.494 137.440,175.734 135.511 C 176.834 134.564,177.734 133.609,177.734 133.390 C 177.735 132.511,180.114 130.184,182.088 129.132 C 183.238 128.518,184.619 127.614,185.156 127.122 C 188.275 124.265,192.541 123.365,195.218 124.998 M188.605 129.088 C 187.675 129.832,186.123 130.913,185.156 131.490 C 184.189 132.066,182.976 132.797,182.459 133.114 L 181.519 133.691 182.738 134.204 C 183.484 134.518,184.052 135.096,184.203 135.695 C 184.349 136.276,185.188 137.156,186.267 137.861 L 188.086 139.047 188.213 137.590 C 188.284 136.789,188.117 135.455,187.844 134.626 C 186.927 131.843,189.441 129.666,191.461 131.495 C 192.149 132.118,192.200 132.505,191.956 135.298 C 191.699 138.251,191.722 138.392,192.425 138.093 C 192.831 137.919,193.472 137.765,193.848 137.750 C 195.043 137.703,194.851 129.733,193.627 128.584 C 192.280 127.318,190.605 127.486,188.605 129.088 M205.469 128.516 C 204.267 129.717,204.269 138.708,205.471 138.394 C 205.902 138.281,206.546 138.430,206.902 138.723 C 207.499 139.217,207.529 138.990,207.283 135.781 C 207.058 132.830,207.117 132.194,207.671 131.581 C 209.189 129.904,212.093 131.334,211.530 133.482 C 211.373 134.081,211.160 135.578,211.057 136.810 L 210.869 139.049 212.833 137.786 C 213.955 137.065,214.808 136.222,214.821 135.822 C 214.834 135.436,215.370 134.820,216.013 134.454 C 217.584 133.561,217.377 133.226,214.336 131.730 C 212.907 131.027,211.552 130.106,211.326 129.683 C 210.337 127.835,206.845 127.139,205.469 128.516 M177.392 138.954 C 175.897 140.449,175.424 142.711,176.290 144.221 C 176.907 145.296,176.899 145.320,175.665 145.945 C 172.249 147.675,169.735 154.267,171.731 156.262 C 172.729 157.260,174.499 155.124,174.310 153.152 C 173.894 148.822,179.037 147.864,181.891 151.740 L 182.617 152.727 184.259 151.743 C 187.318 149.910,188.738 146.188,186.906 144.806 C 186.043 144.154,184.519 141.715,185.095 141.907 C 185.236 141.954,185.426 141.816,185.518 141.602 C 185.802 140.934,183.174 139.453,181.706 139.453 C 180.834 139.453,179.997 139.146,179.439 138.622 L 178.555 137.791 177.392 138.954 M219.200 139.071 C 218.605 139.567,217.766 139.815,216.809 139.777 C 214.385 139.682,211.328 142.565,211.328 144.945 C 211.328 145.823,211.346 145.828,211.881 145.097 C 212.185 144.681,212.282 144.247,212.097 144.133 C 211.912 144.018,211.908 143.686,212.088 143.394 C 212.347 142.975,212.506 143.031,212.840 143.656 C 213.168 144.269,213.133 144.558,212.687 144.929 C 212.369 145.192,212.109 145.632,212.109 145.904 C 212.109 146.177,211.838 146.505,211.507 146.632 C 210.981 146.834,210.999 146.999,211.647 147.943 C 212.054 148.537,212.686 149.515,213.051 150.116 C 213.416 150.717,214.272 151.548,214.953 151.963 L 216.192 152.716 217.374 151.612 C 221.514 147.743,225.601 148.802,224.801 153.537 C 224.522 155.189,226.669 157.322,227.420 156.140 C 228.913 153.790,227.026 148.155,224.147 146.365 C 222.246 145.183,221.946 144.775,222.656 144.336 C 223.485 143.824,223.090 140.736,222.036 139.483 C 220.862 138.088,220.452 138.028,219.200 139.071 M184.056 142.919 C 186.450 145.058,185.268 148.542,181.966 149.078 C 178.554 149.632,176.607 145.258,179.225 142.919 C 180.870 141.449,182.411 141.449,184.056 142.919 M220.215 143.173 C 221.499 144.650,221.392 146.637,219.952 148.077 C 216.925 151.104,212.144 147.533,214.217 143.793 C 215.430 141.605,218.570 141.280,220.215 143.173 M190.865 153.802 C 190.703 153.967,189.484 154.467,188.156 154.914 C 185.990 155.642,185.732 155.843,185.639 156.867 C 185.344 160.125,185.178 160.451,183.148 161.754 L 181.162 163.029 180.433 162.081 C 179.495 160.860,179.505 160.756,180.630 160.019 C 181.899 159.187,182.341 157.162,181.439 156.304 C 180.892 155.784,180.729 155.764,180.569 156.201 C 179.970 157.831,178.271 159.014,176.008 159.376 C 170.058 160.329,168.661 168.605,173.869 172.051 C 175.382 173.052,175.409 173.111,175.187 174.916 C 174.910 177.168,175.773 178.768,178.132 180.370 C 179.002 180.962,181.422 182.666,183.509 184.158 C 192.728 190.747,194.531 190.456,194.531 182.376 C 194.531 176.824,193.976 175.781,191.016 175.781 C 188.108 175.781,186.650 173.471,188.433 171.688 C 189.974 170.147,192.007 169.993,193.385 171.314 L 194.531 172.412 194.530 168.335 C 194.528 162.636,193.495 161.055,189.453 160.565 C 187.703 160.352,187.695 160.345,187.695 158.811 L 187.695 157.270 190.566 156.744 C 192.755 156.343,193.566 156.326,193.984 156.672 C 194.425 157.039,194.531 156.961,194.531 156.275 C 194.531 155.761,194.363 155.527,194.107 155.685 C 193.873 155.829,193.115 155.397,192.421 154.725 C 191.727 154.052,191.027 153.637,190.865 153.802 M205.844 154.120 C 205.443 154.603,205.278 154.622,205.021 154.218 C 204.824 153.907,204.697 154.357,204.693 155.385 C 204.688 156.944,204.742 157.030,205.477 156.636 C 206.437 156.122,210.693 156.852,211.350 157.643 C 212.500 159.029,211.633 160.338,209.382 160.613 C 205.670 161.066,204.688 162.568,204.688 167.791 C 204.688 172.105,204.724 172.172,206.332 170.793 C 207.687 169.631,211.719 171.353,211.719 173.093 C 211.719 174.503,209.957 175.824,208.213 175.721 C 205.252 175.547,204.688 176.595,204.688 182.266 C 204.688 189.396,206.388 190.404,211.987 186.596 C 223.986 178.435,224.028 178.394,223.735 175.337 C 223.558 173.495,223.602 173.397,225.200 172.087 C 229.951 168.194,228.800 159.375,223.542 159.375 C 221.645 159.375,219.520 158.266,218.987 156.997 C 218.625 156.137,218.403 155.999,217.862 156.302 C 216.896 156.843,217.030 158.347,218.164 159.694 C 219.286 161.027,219.320 161.253,218.559 162.259 C 217.378 163.819,214.127 160.997,213.983 158.287 L 213.867 156.084 210.749 154.800 C 207.236 153.353,206.559 153.259,205.844 154.120 M178.613 163.326 C 178.989 163.779,179.297 164.657,179.297 165.278 C 179.297 166.920,180.501 166.748,183.755 164.640 C 186.960 162.564,189.324 162.266,190.893 163.740 C 192.795 165.527,191.945 167.238,188.407 168.743 C 185.363 170.038,184.966 170.652,184.931 174.123 C 184.887 178.497,182.742 180.323,179.775 178.514 C 177.928 177.388,177.514 176.025,178.506 174.342 C 179.729 172.270,179.561 171.598,177.746 171.291 C 173.612 170.593,171.564 165.876,174.234 163.206 C 175.611 161.829,177.412 161.879,178.613 163.326 M224.990 162.881 C 227.564 165.455,225.705 170.121,221.704 171.128 C 219.490 171.686,219.146 172.333,220.260 173.841 C 222.884 177.390,218.155 180.960,215.137 177.708 C 214.176 176.672,214.063 176.260,214.063 173.792 C 214.063 170.575,213.487 169.799,210.315 168.738 C 206.753 167.546,206.060 164.820,208.899 163.163 C 210.633 162.150,212.147 162.492,215.476 164.648 C 218.490 166.601,220.156 166.953,219.792 165.562 C 219.113 162.964,223.045 160.936,224.990 162.881 M191.154 178.692 C 193.342 180.720,191.865 184.531,188.891 184.531 C 187.740 184.531,187.154 184.235,186.008 183.073 C 185.217 182.270,184.219 181.362,183.789 181.054 C 183.047 180.522,183.071 180.493,184.277 180.481 C 184.976 180.474,185.547 180.317,185.547 180.131 C 185.547 178.111,189.446 177.110,191.154 178.692 M213.111 179.102 C 213.820 179.854,214.676 180.469,215.013 180.469 C 215.350 180.469,215.625 180.645,215.625 180.859 C 215.625 181.074,215.285 181.250,214.870 181.250 C 214.455 181.250,214.005 181.597,213.870 182.021 C 212.872 185.167,207.347 185.017,207.021 181.836 C 206.626 177.969,210.432 176.261,213.111 179.102 M94.531 242.969 C 92.911 244.589,94.073 247.656,96.307 247.656 C 97.475 247.656,99.219 246.061,99.219 244.992 C 99.219 242.691,96.139 241.361,94.531 242.969 M258.203 247.449 L 258.203 252.711 256.738 251.711 C 253.557 249.538,249.799 251.504,248.872 255.825 C 248.237 258.784,248.322 266.266,249.016 268.604 C 250.229 272.689,254.590 274.322,257.130 271.643 C 258.253 270.457,258.594 270.466,258.594 271.680 C 258.594 272.613,258.698 272.656,260.938 272.656 L 263.281 272.656 263.281 257.422 L 263.281 242.188 260.742 242.188 L 258.203 242.188 258.203 247.449 M78.950 244.824 C 77.703 249.667,71.805 271.602,71.622 272.081 C 71.440 272.554,71.889 272.656,74.158 272.656 L 76.915 272.656 77.587 269.531 L 78.258 266.406 81.635 266.406 L 85.013 266.406 85.531 269.043 C 86.278 272.839,86.107 272.656,88.909 272.656 C 90.969 272.656,91.406 272.543,91.406 272.012 C 91.406 271.536,85.939 250.649,84.085 244.043 C 83.930 243.492,83.451 243.359,81.610 243.359 L 79.327 243.359 78.950 244.824 M196.163 257.520 C 194.160 265.093,192.433 271.605,192.323 271.991 C 192.142 272.625,192.380 272.682,194.773 272.577 L 197.423 272.461 198.048 269.531 L 198.673 266.602 202.154 266.602 L 205.635 266.602 205.979 268.164 C 206.169 269.023,206.490 270.386,206.692 271.191 L 207.061 272.656 209.612 272.656 C 211.856 272.656,212.138 272.574,211.963 271.973 C 211.475 270.299,204.688 244.181,204.688 243.977 C 204.688 243.852,203.588 243.750,202.245 243.750 L 199.803 243.750 196.163 257.520 M158.199 246.973 C 158.189 249.910,157.764 251.172,156.785 251.172 C 155.935 251.172,155.859 251.331,155.859 253.125 C 155.859 255.035,155.885 255.078,157.031 255.078 L 158.203 255.078 158.205 262.207 C 158.206 271.518,158.867 272.840,163.391 272.579 L 165.430 272.461 165.548 270.410 C 165.661 268.448,165.623 268.359,164.683 268.359 C 163.142 268.359,162.891 267.320,162.891 260.963 L 162.891 255.078 164.258 255.078 L 165.625 255.078 165.625 253.125 L 165.625 251.172 164.258 251.172 L 162.891 251.172 162.891 248.438 L 162.891 245.703 160.547 245.703 L 158.203 245.703 158.199 246.973 M105.540 251.551 C 101.221 254.262,101.155 269.840,105.453 272.062 C 107.284 273.009,109.849 272.835,111.096 271.680 C 112.430 270.443,112.500 270.454,112.500 271.888 C 112.500 275.239,110.831 276.733,107.367 276.483 L 105.078 276.317 105.078 278.183 C 105.078 281.022,109.172 281.784,113.250 279.704 C 116.860 277.862,117.188 276.444,117.188 262.637 L 117.188 251.172 115.039 251.172 C 113.216 251.172,112.891 251.280,112.891 251.888 C 112.891 253.072,112.468 253.131,111.558 252.073 C 110.346 250.665,107.364 250.406,105.540 251.551 M125.195 251.333 C 120.137 253.581,119.156 267.969,123.826 271.421 C 128.135 274.607,136.707 271.938,134.361 268.141 C 133.392 266.573,133.247 266.544,131.552 267.577 C 128.702 269.315,125.781 268.004,125.781 264.986 L 125.781 263.672 130.664 263.672 L 135.547 263.672 135.538 260.059 C 135.521 252.678,130.913 248.791,125.195 251.333 M146.289 251.215 C 145.859 251.465,145.112 252.027,144.629 252.465 L 143.750 253.261 143.750 252.217 C 143.750 251.200,143.687 251.172,141.406 251.172 L 139.063 251.172 139.063 261.914 L 139.063 272.656 141.406 272.656 L 143.750 272.656 143.750 264.735 C 143.750 255.741,143.958 254.933,146.220 255.154 C 148.221 255.349,148.425 256.257,148.432 264.960 L 148.438 272.694 150.878 272.577 L 153.318 272.461 153.184 263.672 C 153.044 254.505,152.835 253.229,151.242 251.809 C 150.255 250.930,147.373 250.584,146.289 251.215 M172.032 251.501 C 166.382 254.154,167.349 260.650,173.828 263.568 C 176.791 264.903,177.447 265.567,177.274 267.057 C 177.007 269.366,174.115 269.507,173.047 267.264 C 172.489 266.092,172.351 266.032,170.184 266.024 L 167.907 266.016 168.172 267.285 C 169.837 275.263,182.024 274.627,182.030 266.562 C 182.032 263.562,180.967 262.266,176.850 260.259 C 173.259 258.508,172.519 257.576,173.404 255.922 C 174.306 254.236,176.714 254.576,177.186 256.457 C 177.410 257.350,177.605 257.422,179.781 257.422 L 182.133 257.422 181.897 255.966 C 181.225 251.824,176.193 249.547,172.032 251.501 M218.145 251.331 C 213.468 253.368,212.152 266.622,216.201 270.915 C 220.160 275.112,227.749 272.491,228.213 266.766 L 228.320 265.447 226.091 265.405 C 223.941 265.364,223.853 265.402,223.616 266.483 C 223.137 268.664,220.127 269.303,219.389 267.381 C 218.833 265.933,219.119 256.845,219.749 255.946 C 220.919 254.276,223.022 255.138,223.588 257.520 C 223.831 258.545,223.950 258.594,226.210 258.594 L 228.578 258.594 228.323 257.324 C 227.813 254.775,227.303 253.623,226.231 252.596 C 224.385 250.828,220.644 250.242,218.145 251.331 M235.789 251.185 C 233.764 251.792,232.176 253.681,231.621 256.143 L 231.332 257.422 233.830 257.422 C 235.975 257.422,236.328 257.323,236.328 256.719 C 236.328 255.707,237.102 255.078,238.346 255.078 C 239.656 255.078,240.234 256.010,240.234 258.123 L 240.234 259.657 237.960 259.863 C 231.582 260.442,228.684 266.449,232.465 271.255 C 234.001 273.208,239.844 273.098,239.844 271.116 C 239.844 270.316,240.572 270.715,240.695 271.582 C 240.807 272.367,241.072 272.473,243.164 272.575 L 245.508 272.689 245.417 265.349 C 245.312 256.837,244.923 254.409,243.410 252.788 C 241.778 251.042,238.542 250.361,235.789 251.185 M270.898 251.516 C 267.635 253.015,266.837 254.970,266.816 261.523 C 266.795 268.159,267.681 270.496,270.847 272.152 C 275.205 274.431,282.666 271.115,280.131 268.026 L 279.056 266.717 277.712 267.537 C 274.850 269.281,272.089 268.279,271.638 265.332 L 271.385 263.672 276.566 263.672 L 281.747 263.672 281.553 259.965 C 281.159 252.421,276.673 248.864,270.898 251.516 M291.504 251.558 C 290.806 251.984,290.234 252.521,290.234 252.752 C 290.234 252.982,290.059 253.062,289.844 252.930 C 289.629 252.797,289.453 252.347,289.453 251.930 C 289.453 251.264,289.169 251.172,287.103 251.172 L 284.753 251.172 284.857 261.816 L 284.961 272.461 287.402 272.577 L 289.844 272.694 289.844 264.500 C 289.844 255.654,289.973 255.078,291.960 255.078 C 293.968 255.078,294.141 255.833,294.141 264.600 L 294.141 272.694 296.582 272.577 L 299.023 272.461 299.023 264.596 C 299.023 256.020,299.259 255.078,301.406 255.078 C 303.280 255.078,303.516 256.155,303.516 264.735 L 303.516 272.656 305.859 272.656 L 308.203 272.656 308.195 263.965 C 308.185 254.190,307.846 252.596,305.519 251.393 C 303.292 250.242,300.180 250.939,299.176 252.814 L 298.719 253.667 297.895 252.665 C 296.222 250.631,293.731 250.200,291.504 251.558 M82.949 256.644 C 83.518 259.332,83.984 261.661,83.984 261.820 C 83.984 261.979,82.911 262.109,81.598 262.109 C 79.321 262.109,79.222 262.069,79.425 261.230 C 79.542 260.747,80.036 258.287,80.524 255.764 C 81.573 250.335,81.615 250.350,82.949 256.644 M94.016 251.465 C 93.922 251.626,93.937 256.460,94.048 262.207 L 94.250 272.656 96.539 272.656 L 98.828 272.656 98.828 261.914 L 98.828 251.172 96.507 251.172 C 95.231 251.172,94.110 251.304,94.016 251.465 M203.301 256.001 C 204.681 262.386,204.733 262.109,202.148 262.109 C 199.621 262.109,199.717 262.590,200.981 256.282 C 201.516 253.614,201.953 251.343,201.953 251.236 C 201.953 250.327,202.466 252.139,203.301 256.001 M310.699 251.855 C 317.030 273.027,317.372 276.563,313.086 276.563 C 312.177 276.563,312.109 276.696,312.109 278.473 C 312.109 280.680,312.749 281.076,315.361 280.485 C 318.784 279.711,318.729 279.846,324.744 257.520 L 326.454 251.172 323.830 251.172 L 321.205 251.172 319.956 256.923 C 319.269 260.086,318.640 262.740,318.559 262.822 C 318.374 263.006,317.789 260.844,316.992 257.031 C 316.655 255.420,316.203 253.442,315.987 252.637 L 315.595 251.172 313.045 251.172 C 310.798 251.172,310.519 251.253,310.699 251.855 M111.719 255.859 C 112.894 257.035,112.905 266.700,111.732 267.762 C 108.980 270.252,107.617 268.300,107.617 261.866 C 107.617 255.443,109.112 253.253,111.719 255.859 M129.868 255.844 C 130.249 256.264,130.651 257.407,130.761 258.383 L 130.961 260.156 128.371 260.156 L 125.781 260.156 125.781 258.646 C 125.781 255.772,128.263 254.070,129.868 255.844 M257.489 255.725 C 258.466 256.609,258.576 267.173,257.616 267.970 C 254.978 270.159,253.516 267.914,253.516 261.675 C 253.516 255.493,254.915 253.396,257.489 255.725 M275.848 255.725 C 276.353 256.181,276.563 256.926,276.563 258.264 L 276.563 260.156 273.970 260.156 L 271.378 260.156 271.629 258.329 C 272.035 255.361,274.063 254.109,275.848 255.725 M240.410 265.187 C 240.383 268.163,238.226 269.811,236.551 268.136 C 234.808 266.393,236.665 262.722,239.167 262.964 C 240.421 263.085,240.430 263.100,240.410 265.187 M118.356 288.480 C 117.988 288.924,117.964 289.214,118.272 289.522 C 118.864 290.114,120.007 289.595,119.853 288.803 C 119.678 287.899,118.966 287.745,118.356 288.480 M141.797 290.276 C 141.797 292.405,141.723 292.629,141.113 292.354 C 137.551 290.750,134.750 295.814,136.900 299.972 C 137.722 301.561,139.881 302.150,140.954 301.077 C 141.340 300.691,141.507 300.703,141.774 301.134 C 143.074 303.238,144.201 292.830,143.113 288.770 C 142.606 286.876,141.797 287.802,141.797 290.276 M164.160 288.176 C 163.892 288.270,163.672 288.695,163.672 289.122 C 163.672 290.089,165.356 289.991,165.543 289.014 C 165.672 288.333,164.956 287.898,164.160 288.176 M182.031 290.226 C 182.031 292.556,182.029 292.560,181.083 292.130 C 178.707 291.047,176.953 292.960,176.953 296.635 C 176.953 300.556,178.399 302.220,180.964 301.252 C 181.872 300.909,182.257 300.905,182.460 301.233 C 183.216 302.456,183.913 301.184,183.819 298.756 C 183.767 297.399,183.695 294.399,183.659 292.090 C 183.598 288.173,183.541 287.891,182.813 287.891 C 182.118 287.891,182.031 288.151,182.031 290.226 M261.719 290.248 C 261.719 292.458,261.671 292.580,260.963 292.201 C 257.848 290.534,255.185 296.052,257.212 299.972 C 258.037 301.568,260.167 302.142,261.299 301.074 C 261.713 300.684,261.852 300.684,261.995 301.074 C 262.970 303.733,263.669 298.484,263.348 290.918 C 263.174 286.813,261.719 286.215,261.719 290.248 M270.233 294.582 C 270.118 301.245,270.434 302.871,271.508 301.134 C 271.774 300.703,271.941 300.691,272.327 301.077 C 274.182 302.932,276.953 300.695,276.953 297.342 C 276.953 293.143,275.669 291.435,273.072 292.180 L 271.875 292.524 271.875 290.207 C 271.875 288.169,271.783 287.891,271.112 287.891 C 270.388 287.891,270.342 288.242,270.233 294.582 M95.703 294.922 C 95.703 300.911,95.736 301.172,96.484 301.172 C 97.233 301.172,97.266 300.911,97.266 294.922 C 97.266 288.932,97.233 288.672,96.484 288.672 C 95.736 288.672,95.703 288.932,95.703 294.922 M150.215 292.285 C 149.795 298.391,150.103 301.341,151.179 301.500 L 152.076 301.633 151.809 296.640 C 151.493 290.731,151.593 290.738,153.490 296.753 C 155.401 302.811,155.656 302.813,157.689 296.789 L 159.308 291.992 159.341 296.777 C 159.373 301.291,159.419 301.563,160.156 301.563 C 160.906 301.563,160.938 301.302,160.938 295.117 L 160.938 288.672 159.982 288.672 C 159.102 288.672,158.896 289.070,157.407 293.652 C 156.517 296.392,155.733 298.690,155.665 298.759 C 155.597 298.829,154.783 296.587,153.856 293.779 C 151.612 286.980,150.608 286.568,150.215 292.285 M203.125 295.146 C 203.125 301.101,203.180 301.609,203.809 301.490 C 204.357 301.385,204.515 300.877,204.608 298.922 L 204.725 296.484 206.243 296.484 C 209.928 296.484,211.869 293.879,210.471 290.809 C 209.808 289.355,208.216 288.672,205.488 288.672 L 203.125 288.672 203.125 295.146 M294.189 289.522 C 293.470 291.414,290.625 300.695,290.625 301.147 C 290.625 302.158,291.947 301.295,292.383 300.000 C 292.838 298.647,292.866 298.633,295.117 298.633 C 297.368 298.633,297.396 298.647,297.850 300.000 C 298.660 302.417,300.139 302.162,299.403 299.732 C 296.234 289.267,295.117 287.080,294.189 289.522 M301.953 295.089 C 301.953 301.328,301.982 301.563,302.744 301.563 C 303.885 301.563,303.779 288.965,302.637 288.746 C 302.008 288.625,301.953 289.133,301.953 295.089 M122.865 290.213 C 122.725 290.439,122.713 290.792,122.839 290.996 C 122.966 291.200,122.712 291.558,122.277 291.791 C 121.258 292.336,121.251 293.359,122.266 293.359 C 122.992 293.359,123.047 293.620,123.047 297.057 C 123.047 300.312,123.137 300.802,123.802 301.158 C 125.064 301.833,126.172 301.657,126.172 300.781 C 126.172 300.260,125.911 300.000,125.391 300.000 C 124.737 300.000,124.604 299.729,124.577 298.340 C 124.559 297.427,124.486 296.240,124.414 295.703 C 124.231 294.329,124.565 293.359,125.222 293.359 C 125.529 293.359,125.781 293.008,125.781 292.578 C 125.781 292.148,125.530 291.797,125.222 291.797 C 124.915 291.797,124.608 291.403,124.539 290.922 C 124.406 289.993,123.292 289.521,122.865 290.213 M208.454 290.840 C 210.311 292.698,209.057 295.024,206.295 294.843 L 204.514 294.727 204.552 292.716 C 204.613 289.552,206.336 288.723,208.454 290.840 M295.941 293.652 C 296.298 294.888,296.673 296.118,296.774 296.387 C 296.905 296.733,296.442 296.875,295.187 296.875 L 293.415 296.875 294.168 294.240 C 294.583 292.790,294.922 291.560,294.922 291.505 C 294.922 290.809,295.425 291.869,295.941 293.652 M101.181 292.492 C 100.077 293.386,99.491 296.367,99.986 298.569 C 100.568 301.159,102.049 301.971,104.395 300.985 C 104.920 300.764,105.078 300.888,105.078 301.521 C 105.078 302.830,103.659 303.979,102.219 303.835 C 101.320 303.745,100.977 303.873,100.977 304.297 C 100.977 305.810,105.199 305.171,106.048 303.529 C 107.419 300.877,106.671 289.926,105.273 292.189 C 105.111 292.450,104.788 292.450,104.299 292.189 C 103.213 291.607,102.145 291.711,101.181 292.492 M109.342 292.090 C 108.938 295.622,109.427 301.381,110.139 301.492 C 110.899 301.611,110.938 301.426,110.938 297.697 C 110.938 294.222,111.023 293.732,111.693 293.373 C 113.496 292.408,114.063 293.485,114.063 297.879 C 114.063 301.302,114.118 301.563,114.844 301.563 C 116.128 301.563,116.022 293.869,114.721 292.646 C 113.654 291.644,112.611 291.567,111.415 292.405 C 110.629 292.955,110.547 292.955,110.547 292.405 C 110.547 291.810,109.408 291.512,109.342 292.090 M118.359 296.680 C 118.359 301.174,118.421 301.608,119.043 301.488 C 119.649 301.371,119.727 300.823,119.727 296.680 C 119.727 292.536,119.649 291.988,119.043 291.871 C 118.421 291.751,118.359 292.185,118.359 296.680 M129.439 292.254 C 125.989 293.924,127.611 301.563,131.415 301.563 C 133.056 301.563,134.855 300.147,133.936 299.580 C 133.637 299.395,133.241 299.415,133.031 299.626 C 132.345 300.311,130.137 300.058,129.701 299.244 C 128.806 297.571,129.135 297.266,131.836 297.266 L 134.375 297.266 134.375 295.490 C 134.375 292.526,132.039 290.995,129.439 292.254 M163.951 292.039 C 163.352 292.637,164.082 301.367,164.731 301.367 C 165.862 301.367,166.005 292.378,164.878 292.083 C 164.455 291.973,164.037 291.953,163.951 292.039 M168.138 292.310 C 167.581 293.762,168.168 301.359,168.848 301.489 C 169.458 301.606,169.531 301.240,169.531 298.076 C 169.531 294.220,170.244 292.680,171.768 293.242 C 172.899 293.659,173.035 294.162,173.041 297.949 C 173.046 301.300,173.104 301.563,173.828 301.563 C 174.560 301.563,174.609 301.302,174.609 297.461 C 174.609 292.167,173.184 290.455,170.399 292.405 C 169.614 292.955,169.531 292.955,169.531 292.405 C 169.531 291.667,168.414 291.591,168.138 292.310 M187.695 292.264 C 185.236 293.658,185.925 296.066,189.166 297.404 C 190.735 298.052,191.381 299.009,190.706 299.684 C 190.016 300.375,188.430 300.148,187.510 299.229 C 186.443 298.161,185.620 298.677,186.316 299.977 C 187.310 301.835,190.871 301.961,192.038 300.180 C 193.094 298.568,192.475 297.354,190.025 296.232 C 187.821 295.223,187.322 294.318,188.452 293.380 C 189.061 292.874,190.625 293.431,190.625 294.154 C 190.625 294.362,190.977 294.531,191.406 294.531 C 192.734 294.531,192.313 293.070,190.748 292.246 C 189.684 291.686,188.705 291.691,187.695 292.264 M213.642 292.939 C 211.830 294.750,212.059 299.550,214.029 301.062 C 215.510 302.199,217.982 301.472,218.941 299.617 C 221.359 294.941,217.059 289.521,213.642 292.939 M225.852 292.457 C 225.648 292.846,225.254 294.183,224.979 295.428 C 224.287 298.551,224.007 298.500,223.255 295.116 C 222.719 292.707,222.469 292.188,221.848 292.188 C 220.917 292.188,220.896 291.905,222.217 297.070 C 223.777 303.166,224.425 303.043,226.012 296.350 C 226.357 294.895,226.725 295.505,227.560 298.915 C 228.049 300.908,228.375 301.563,228.881 301.563 C 229.847 301.563,232.234 292.241,231.355 291.903 C 230.565 291.600,230.218 292.296,229.667 295.286 C 228.984 298.989,228.829 298.994,227.945 295.340 C 227.139 292.010,226.530 291.170,225.852 292.457 M235.156 292.301 C 232.699 293.541,232.657 299.834,235.098 301.140 C 236.293 301.780,238.091 301.647,239.081 300.845 C 240.336 299.828,239.770 299.121,238.292 299.858 C 236.991 300.507,235.858 300.140,235.165 298.845 C 234.418 297.449,234.689 297.266,237.500 297.266 L 240.234 297.266 240.234 295.673 C 240.234 292.795,237.620 291.058,235.156 292.301 M244.994 292.134 C 244.712 292.314,244.053 292.378,243.529 292.278 L 242.578 292.096 242.578 296.829 C 242.578 301.302,242.621 301.563,243.359 301.563 C 244.085 301.563,244.141 301.302,244.141 297.930 C 244.141 294.182,244.436 293.359,245.781 293.359 C 246.224 293.359,246.484 293.070,246.484 292.578 C 246.484 291.762,245.870 291.579,244.994 292.134 M249.752 292.254 C 247.658 293.267,247.296 298.528,249.189 300.421 C 250.613 301.845,252.705 301.983,253.952 300.735 C 255.003 299.684,254.265 299.079,252.835 299.821 C 251.511 300.508,250.335 300.008,249.718 298.495 L 249.217 297.266 251.952 297.266 L 254.688 297.266 254.688 295.673 C 254.688 292.870,252.134 291.100,249.752 292.254 M278.516 292.256 C 278.516 292.540,279.140 294.646,279.903 296.936 C 281.370 301.339,281.226 303.906,279.512 303.906 C 279.179 303.906,278.906 304.170,278.906 304.492 C 278.906 305.577,280.806 305.185,281.561 303.944 C 282.405 302.555,285.387 292.288,285.045 291.946 C 284.360 291.261,283.610 292.401,282.976 295.090 C 282.112 298.757,282.014 298.753,280.837 295.020 C 279.971 292.272,278.516 290.539,278.516 292.256 M105.000 296.466 C 105.133 299.231,104.672 300.098,103.161 299.922 C 101.788 299.762,101.028 298.104,101.378 296.032 C 102.070 291.933,104.797 292.260,105.000 296.466 M132.098 293.615 C 133.585 294.960,132.418 296.448,130.207 296.027 C 129.133 295.822,129.094 294.327,130.143 293.592 C 131.239 292.824,131.224 292.824,132.098 293.615 M182.191 295.287 C 182.743 297.853,182.121 299.772,180.683 299.936 C 179.126 300.113,178.516 299.175,178.516 296.605 C 178.516 292.761,181.422 291.719,182.191 295.287 M217.608 294.415 C 218.629 297.101,217.803 300.000,216.016 300.000 C 214.567 300.000,214.063 299.099,214.063 296.510 C 214.063 293.330,216.621 291.818,217.608 294.415 M237.958 293.615 C 239.367 294.891,238.885 295.703,236.719 295.703 C 234.545 295.703,234.402 295.490,235.575 293.998 C 236.517 292.800,236.976 292.727,237.958 293.615 M253.055 294.869 C 253.166 295.617,252.996 295.703,251.394 295.703 C 249.887 295.703,249.609 295.585,249.609 294.944 C 249.609 292.859,252.744 292.791,253.055 294.869 M141.328 293.828 C 141.940 294.440,141.940 298.919,141.328 299.531 C 140.585 300.274,138.753 300.101,138.295 299.244 C 136.689 296.244,139.221 291.721,141.328 293.828 M261.293 293.720 C 261.994 294.164,262.342 298.055,261.775 299.114 C 260.559 301.385,258.203 299.966,258.203 296.962 C 258.203 294.121,259.604 292.651,261.293 293.720 M274.986 294.115 C 276.089 296.176,275.049 300.391,273.438 300.391 C 272.371 300.391,271.484 298.783,271.484 296.849 C 271.484 294.261,271.989 293.359,273.438 293.359 C 274.169 293.359,274.728 293.632,274.986 294.115 M194.426 301.074 C 194.311 301.880,194.094 302.847,193.942 303.223 C 193.567 304.153,194.766 304.146,195.264 303.215 C 196.149 301.561,196.227 299.609,195.407 299.609 C 194.811 299.609,194.586 299.945,194.426 301.074 " stroke="none" fill="#27416d" fill-rule="evenodd"></path><path id="path1" d="M0.000 200.000 L 0.000 400.000 200.000 400.000 L 400.000 400.000 400.000 200.000 L 400.000 0.000 200.000 0.000 L 0.000 0.000 0.000 200.000 M213.867 95.291 C 217.520 96.195,220.873 97.007,221.319 97.096 C 221.765 97.184,224.050 97.986,226.397 98.879 C 228.744 99.771,232.314 101.086,234.331 101.800 C 236.348 102.515,239.160 103.782,240.581 104.617 C 242.002 105.451,244.180 106.592,245.422 107.152 C 246.663 107.712,247.947 108.438,248.273 108.764 C 248.600 109.091,249.088 109.493,249.359 109.659 C 253.254 112.048,254.367 117.247,254.272 132.617 C 254.247 136.699,254.232 140.742,254.240 141.602 C 254.446 166.471,254.097 172.089,251.961 178.297 C 251.550 179.491,251.277 180.469,251.355 180.469 C 251.432 180.469,250.983 181.526,250.357 182.819 C 249.731 184.111,249.219 185.253,249.219 185.357 C 249.219 185.646,246.770 190.763,246.418 191.208 C 246.247 191.424,245.140 192.920,243.958 194.531 C 242.776 196.143,241.329 198.076,240.743 198.828 C 238.960 201.114,230.087 209.741,228.873 210.369 C 228.247 210.693,227.734 211.107,227.734 211.291 C 227.734 211.474,226.724 212.302,225.488 213.130 C 224.253 213.959,222.451 215.264,221.484 216.030 C 213.597 222.283,204.371 226.563,198.775 226.563 C 196.212 226.562,191.014 225.124,190.234 224.198 C 190.127 224.071,189.718 223.848,189.326 223.703 C 188.629 223.445,181.630 219.013,180.469 218.094 C 180.146 217.839,178.125 216.326,175.977 214.732 C 173.828 213.138,171.613 211.413,171.054 210.898 C 170.496 210.382,169.094 209.170,167.941 208.203 C 164.953 205.700,160.116 200.858,158.769 199.023 C 158.138 198.164,157.532 197.373,157.423 197.266 C 156.983 196.833,153.666 192.461,153.034 191.480 C 152.113 190.051,149.219 183.973,149.219 183.467 C 149.219 183.243,148.871 182.342,148.447 181.465 C 147.723 179.969,146.437 175.347,145.887 172.266 C 145.195 168.384,144.863 156.559,144.765 132.227 C 144.703 117.091,145.556 113.156,149.685 109.533 C 151.291 108.124,162.160 102.738,165.726 101.585 C 167.177 101.116,168.847 100.480,169.436 100.173 C 170.026 99.866,170.657 99.613,170.839 99.612 C 171.022 99.610,171.725 99.366,172.402 99.069 C 174.911 97.968,175.348 97.834,184.180 95.453 C 185.062 95.215,187.208 94.768,191.211 93.990 C 196.966 92.871,206.250 93.404,213.867 95.291 M192.285 143.618 C 191.599 143.895,191.677 145.527,192.411 146.261 C 193.302 147.153,194.422 147.014,195.136 145.925 C 196.291 144.162,194.509 142.721,192.285 143.618 M204.129 143.973 C 203.127 144.976,203.717 146.875,205.031 146.875 C 206.847 146.875,207.649 144.356,206.029 143.740 C 204.764 143.259,204.855 143.248,204.129 143.973 M98.190 242.606 C 99.443 243.592,99.635 246.006,98.535 246.950 C 95.988 249.138,92.491 246.790,93.754 243.741 C 94.607 241.681,96.422 241.216,98.190 242.606 M263.370 256.348 C 263.503 274.449,263.777 272.656,260.874 272.656 C 258.852 272.656,258.492 272.547,258.317 271.878 C 258.121 271.127,258.073 271.134,256.956 272.073 C 254.272 274.332,250.391 272.952,248.954 269.227 C 247.756 266.124,247.922 256.692,249.220 254.122 C 250.962 250.670,254.305 249.486,256.901 251.403 L 258.008 252.220 257.987 247.302 C 257.961 241.329,257.726 241.797,260.756 241.797 L 263.263 241.797 263.370 256.348 M86.103 250.488 C 87.157 254.409,88.869 260.778,89.908 264.642 C 92.278 273.456,92.375 272.656,88.929 272.656 L 86.062 272.656 85.581 270.410 C 84.744 266.497,85.072 266.797,81.629 266.797 L 78.546 266.797 78.164 268.262 C 77.954 269.067,77.664 270.386,77.519 271.191 C 77.375 271.997,77.057 272.684,76.812 272.719 C 74.570 273.034,71.790 272.890,71.622 272.450 C 71.515 272.171,72.208 269.071,73.162 265.561 C 74.115 262.051,75.838 255.620,76.990 251.270 L 79.083 243.359 81.635 243.359 L 84.186 243.359 86.103 250.488 M206.853 251.367 C 207.972 255.664,209.686 262.212,210.662 265.918 L 212.437 272.656 209.578 272.656 L 206.719 272.656 206.067 269.727 L 205.415 266.797 202.164 266.797 L 198.913 266.797 198.410 269.329 C 197.736 272.718,197.685 272.771,194.924 272.971 C 191.827 273.195,191.663 272.983,192.555 269.914 C 192.959 268.522,194.633 262.285,196.274 256.055 C 197.915 249.824,199.352 244.411,199.466 244.026 C 199.643 243.428,200.050 243.342,202.246 243.440 L 204.820 243.555 206.853 251.367 M162.402 245.559 C 163.196 245.771,163.281 246.033,163.281 248.263 L 163.281 250.732 164.551 250.854 C 165.814 250.976,165.820 250.987,165.820 253.125 L 165.820 255.273 164.542 255.269 L 163.263 255.265 163.370 261.516 L 163.477 267.767 164.648 267.967 C 167.643 268.480,166.223 273.047,163.069 273.047 C 158.844 273.047,157.883 270.981,157.842 261.816 L 157.813 255.078 156.620 255.078 L 155.428 255.078 155.546 253.027 C 155.656 251.115,155.736 250.968,156.738 250.853 C 157.785 250.733,157.813 250.665,157.813 248.245 C 157.813 246.207,157.935 245.728,158.496 245.582 C 159.544 245.308,161.425 245.297,162.402 245.559 M111.372 251.533 C 112.416 252.305,112.419 252.305,112.623 251.524 C 112.804 250.834,113.101 250.755,115.105 250.858 L 117.383 250.977 117.383 263.086 L 117.383 275.195 116.312 277.017 C 114.448 280.187,110.613 281.688,106.785 280.743 L 104.883 280.273 104.883 278.320 L 104.883 276.367 107.569 276.349 C 110.898 276.327,112.130 275.285,112.079 272.537 C 112.062 271.636,111.958 271.122,111.848 271.395 C 110.681 274.294,104.758 273.101,103.077 269.627 C 101.946 267.291,101.814 257.960,102.867 254.841 C 104.237 250.787,108.251 249.226,111.372 251.533 M131.491 251.138 C 134.578 252.540,135.932 255.419,135.935 260.591 L 135.938 263.566 134.125 263.814 C 133.128 263.951,130.931 264.063,129.242 264.063 L 126.172 264.063 126.172 265.369 C 126.172 267.955,129.269 269.003,131.668 267.229 C 133.010 266.237,133.522 266.404,134.701 268.218 L 135.613 269.621 134.339 270.936 C 130.927 274.456,124.241 273.607,121.799 269.343 C 120.588 267.227,120.251 258.593,121.262 255.551 C 122.688 251.257,127.337 249.252,131.491 251.138 M151.087 251.403 C 153.168 252.767,153.498 254.480,153.507 263.965 L 153.516 272.656 150.781 272.656 L 148.047 272.656 148.047 264.648 C 148.047 256.441,147.781 255.078,146.181 255.078 C 144.323 255.078,144.141 255.918,144.141 264.475 L 144.141 272.656 141.400 272.656 L 138.660 272.656 138.763 261.816 L 138.867 250.977 141.309 250.860 C 143.734 250.745,143.750 250.751,143.750 251.807 L 143.750 252.871 144.676 252.001 C 146.435 250.348,149.098 250.100,151.087 251.403 M178.907 251.373 C 180.707 252.294,182.422 255.048,182.422 257.019 C 182.422 258.134,177.451 258.237,177.108 257.129 C 176.229 254.285,173.178 254.431,173.507 257.301 C 173.616 258.254,174.096 258.630,177.148 260.156 C 181.407 262.286,182.633 264.003,182.267 267.329 C 181.417 275.054,168.930 275.053,168.059 267.327 L 167.863 265.585 170.334 265.703 C 172.757 265.818,172.811 265.845,173.131 267.085 C 173.726 269.392,176.953 269.157,176.953 266.806 C 176.953 265.492,176.995 265.529,173.090 263.477 C 168.624 261.130,167.066 257.541,168.939 253.918 C 170.488 250.922,175.515 249.639,178.907 251.373 M224.964 251.349 C 227.013 252.408,228.516 255.055,228.516 257.605 L 228.516 258.984 225.977 258.984 C 223.595 258.984,223.438 258.929,223.438 258.095 C 223.438 255.640,220.680 254.583,219.644 256.641 C 219.130 257.662,219.020 264.433,219.482 266.593 C 220.002 269.019,223.438 268.634,223.438 266.150 C 223.438 265.277,223.564 265.234,226.162 265.234 L 228.887 265.234 228.662 266.504 C 227.357 273.857,218.161 275.751,214.867 269.345 C 213.455 266.600,213.350 257.019,214.705 254.492 C 216.694 250.779,221.196 249.400,224.964 251.349 M242.440 251.681 C 244.821 252.923,245.216 254.579,245.415 264.160 L 245.591 272.656 243.134 272.656 C 241.042 272.656,240.642 272.543,240.436 271.895 C 240.198 271.144,240.184 271.144,239.443 271.885 C 236.829 274.499,232.213 272.918,231.052 269.010 C 229.602 264.128,232.110 260.486,237.470 259.691 L 240.323 259.267 240.109 257.675 C 239.752 255.008,237.454 254.375,236.576 256.701 C 236.175 257.763,236.046 257.813,233.652 257.813 L 231.147 257.813 231.365 256.186 C 231.995 251.492,237.659 249.188,242.440 251.681 M276.280 250.805 C 280.045 251.850,281.737 254.909,281.560 260.354 L 281.445 263.867 276.660 263.977 L 271.875 264.087 271.875 265.203 C 271.875 267.916,274.721 268.902,277.618 267.193 L 279.066 266.338 280.148 267.642 C 283.692 271.914,273.513 275.372,269.200 271.361 C 265.214 267.653,265.437 254.869,269.539 251.948 C 271.648 250.446,273.722 250.094,276.280 250.805 M296.341 251.027 C 297.079 251.378,297.862 251.998,298.080 252.405 C 298.454 253.104,298.543 253.080,299.644 251.979 C 301.026 250.597,302.948 250.143,304.810 250.757 C 308.077 251.835,308.555 253.536,308.577 264.160 L 308.594 272.656 305.859 272.656 L 303.125 272.656 303.125 264.514 C 303.125 255.704,302.860 254.614,300.869 255.246 C 299.463 255.692,299.219 257.143,299.219 265.057 L 299.219 272.656 296.463 272.656 L 293.707 272.656 293.792 264.625 C 293.888 255.542,293.551 254.331,291.227 255.390 L 290.234 255.843 290.234 264.249 L 290.234 272.656 287.500 272.656 L 284.766 272.656 284.766 261.719 L 284.766 250.781 287.305 250.781 C 289.801 250.781,289.844 250.799,289.844 251.832 C 289.844 252.756,289.903 252.806,290.332 252.240 C 291.648 250.505,294.168 249.996,296.341 251.027 M98.601 251.018 C 99.143 251.227,99.219 252.559,99.219 261.956 L 99.219 272.656 96.484 272.656 L 93.750 272.656 93.750 261.979 C 93.750 256.107,93.867 251.185,94.010 251.042 C 94.336 250.716,97.768 250.699,98.601 251.018 M316.744 254.883 C 317.251 257.031,317.875 259.580,318.129 260.547 L 318.591 262.305 319.454 258.008 C 319.929 255.645,320.500 253.052,320.724 252.246 L 321.130 250.781 323.846 250.781 C 327.193 250.781,327.262 249.301,323.222 264.117 C 318.876 280.053,318.323 281.039,313.881 280.779 L 311.914 280.664 311.914 278.516 L 311.914 276.367 313.281 276.172 C 316.716 275.681,316.696 273.778,313.118 261.328 C 309.840 249.919,309.832 250.713,313.217 250.862 L 315.820 250.977 316.744 254.883 M201.153 256.825 L 200.165 261.719 202.179 261.719 L 204.192 261.719 203.264 257.129 C 202.753 254.604,202.292 252.402,202.238 252.235 C 202.185 252.067,201.696 254.133,201.153 256.825 M80.728 256.213 C 80.344 258.330,79.932 260.434,79.813 260.890 C 79.613 261.655,79.751 261.719,81.595 261.719 C 82.694 261.719,83.594 261.604,83.594 261.464 C 83.594 260.768,81.871 252.892,81.665 252.647 C 81.534 252.492,81.113 254.096,80.728 256.213 M108.421 256.337 C 106.574 258.973,107.882 268.359,110.096 268.359 C 111.972 268.359,113.309 257.606,111.641 255.938 C 110.864 255.161,109.091 255.380,108.421 256.337 M126.786 256.083 C 126.436 256.432,126.172 257.357,126.172 258.231 L 126.172 259.766 128.320 259.766 L 130.469 259.766 130.469 258.231 C 130.469 256.483,129.680 255.469,128.320 255.469 C 127.814 255.469,127.123 255.745,126.786 256.083 M254.213 256.348 C 253.299 257.947,253.621 266.685,254.630 267.695 C 255.308 268.372,255.641 268.450,256.535 268.136 L 257.617 267.756 257.726 262.154 C 257.800 258.356,257.690 256.377,257.385 256.010 C 256.662 255.139,254.789 255.339,254.213 256.348 M272.483 256.337 C 272.149 256.814,271.875 257.781,271.875 258.485 L 271.875 259.766 274.269 259.766 L 276.662 259.766 276.400 258.125 C 275.959 255.369,273.839 254.401,272.483 256.337 M237.021 263.965 C 235.450 265.753,235.925 268.359,237.820 268.359 C 239.429 268.359,240.234 267.274,240.234 265.106 C 240.234 263.064,238.387 262.408,237.021 263.965 M143.359 294.561 L 143.359 301.621 142.285 301.521 C 141.694 301.466,140.802 301.557,140.303 301.722 C 137.775 302.562,135.654 299.574,136.026 295.697 C 136.293 292.925,137.495 291.687,139.746 291.866 L 141.406 291.998 141.406 289.749 C 141.406 287.610,141.454 287.500,142.383 287.500 L 143.359 287.500 143.359 294.561 M183.984 294.543 L 183.984 301.587 182.715 301.509 C 182.017 301.466,181.073 301.553,180.618 301.702 C 178.387 302.433,176.563 300.162,176.563 296.654 C 176.563 293.122,178.053 291.468,180.864 291.881 L 182.031 292.052 182.031 289.776 C 182.031 287.609,182.078 287.500,183.008 287.500 L 183.984 287.500 183.984 294.543 M263.672 294.561 L 263.672 301.621 262.598 301.534 C 262.007 301.485,261.059 301.574,260.491 301.731 C 257.065 302.679,254.752 296.850,257.153 293.319 C 257.969 292.119,258.230 291.995,259.887 292.017 L 261.719 292.041 261.719 289.771 C 261.719 287.609,261.766 287.500,262.695 287.500 L 263.672 287.500 263.672 294.561 M271.875 289.771 L 271.875 292.041 273.707 292.017 C 275.364 291.995,275.624 292.119,276.441 293.319 C 278.913 296.954,276.269 303.191,272.907 301.659 C 272.338 301.400,271.783 301.388,271.359 301.625 C 270.072 302.345,269.922 301.602,269.922 294.508 L 269.922 287.500 270.898 287.500 C 271.828 287.500,271.875 287.609,271.875 289.771 M120.082 288.526 C 120.351 289.226,119.698 290.234,118.976 290.234 C 118.104 290.234,117.590 289.380,118.001 288.612 C 118.478 287.721,119.753 287.668,120.082 288.526 M165.785 288.526 C 166.059 289.239,165.396 290.234,164.648 290.234 C 163.917 290.234,163.162 289.156,163.421 288.482 C 163.724 287.692,165.478 287.725,165.785 288.526 M153.943 293.262 L 155.608 298.242 157.204 293.359 C 158.786 288.523,158.813 288.475,160.065 288.354 L 161.328 288.232 161.328 294.897 L 161.328 301.563 160.156 301.563 L 158.984 301.563 158.940 297.754 L 158.897 293.945 157.699 297.739 C 155.911 303.402,155.312 303.331,153.324 297.226 L 152.002 293.164 152.075 297.364 L 152.148 301.564 151.074 301.563 L 150.000 301.563 150.000 294.922 L 150.000 288.281 151.140 288.281 C 152.252 288.281,152.319 288.400,153.943 293.262 M209.400 289.169 C 213.079 291.466,210.740 296.875,206.067 296.875 L 204.688 296.875 204.688 299.219 C 204.688 301.458,204.644 301.563,203.711 301.563 L 202.734 301.563 202.734 295.141 L 202.734 288.719 204.199 288.558 C 206.054 288.354,208.568 288.649,209.400 289.169 M295.777 288.770 C 296.115 289.038,297.272 292.036,298.348 295.432 L 300.304 301.606 299.100 301.486 C 298.110 301.388,297.839 301.142,297.570 300.098 C 297.253 298.865,297.183 298.828,295.163 298.828 C 293.150 298.828,293.070 298.870,292.720 300.098 C 292.386 301.269,290.210 302.322,290.245 301.295 C 290.302 299.648,294.341 288.281,294.870 288.281 C 295.031 288.281,295.440 288.501,295.777 288.770 M97.404 291.660 C 97.543 293.304,97.656 296.205,97.656 298.106 L 97.656 301.563 96.484 301.563 L 95.313 301.563 95.313 295.117 L 95.313 288.672 96.232 288.672 C 97.095 288.672,97.166 288.854,97.404 291.660 M303.596 293.359 C 303.746 302.195,303.846 301.352,302.637 301.491 L 301.563 301.614 301.563 295.143 L 301.563 288.672 302.539 288.672 L 303.516 288.672 303.596 293.359 M124.609 290.384 C 124.609 290.987,124.885 291.387,125.391 291.519 C 125.858 291.642,126.172 292.052,126.172 292.542 C 126.172 293.099,125.923 293.359,125.391 293.359 C 124.208 293.359,124.196 299.184,125.378 299.493 C 127.299 299.995,126.553 302.179,124.609 301.740 C 123.015 301.380,122.656 300.509,122.656 296.996 C 122.656 294.371,122.544 293.750,122.070 293.750 C 121.706 293.750,121.484 293.381,121.484 292.773 C 121.484 292.166,121.706 291.797,122.070 291.797 C 122.461 291.797,122.656 291.406,122.656 290.625 C 122.656 289.635,122.808 289.453,123.633 289.453 C 124.401 289.453,124.609 289.651,124.609 290.384 M204.688 292.630 L 204.688 295.025 206.334 294.804 C 210.038 294.307,209.849 290.234,206.122 290.234 L 204.688 290.234 204.688 292.630 M132.628 291.873 C 133.906 292.455,134.766 294.067,134.766 295.879 L 134.766 297.266 132.227 297.266 C 129.773 297.266,129.688 297.299,129.688 298.251 C 129.688 299.513,131.157 300.286,132.347 299.650 C 133.574 298.993,134.375 299.127,134.375 299.990 C 134.375 302.196,130.084 302.415,128.304 300.300 C 125.259 296.681,128.655 290.062,132.628 291.873 M174.556 293.202 C 174.800 293.738,175.000 295.839,175.000 297.870 L 175.000 301.563 173.828 301.563 L 172.656 301.563 172.656 297.683 C 172.656 294.042,172.604 293.786,171.807 293.533 C 170.400 293.086,169.922 294.249,169.922 298.122 C 169.922 301.531,169.913 301.563,168.945 301.563 L 167.969 301.563 167.969 296.680 L 167.969 291.797 168.945 291.797 C 169.482 291.797,169.922 291.962,169.922 292.164 C 169.922 292.366,170.380 292.294,170.940 292.004 C 172.265 291.316,173.951 291.875,174.556 293.202 M191.717 292.848 C 192.807 294.048,192.668 294.686,191.278 294.850 C 190.531 294.939,190.234 294.797,190.234 294.350 C 190.234 293.510,189.191 293.157,188.472 293.754 C 187.558 294.512,187.762 294.844,189.723 295.793 C 192.302 297.041,193.225 298.382,192.519 299.858 C 191.273 302.460,186.325 302.141,185.871 299.428 C 185.688 298.335,187.006 298.179,187.941 299.183 C 188.764 300.066,189.340 300.183,190.194 299.643 C 191.039 299.108,190.418 298.134,188.801 297.458 C 185.875 296.236,185.216 294.772,186.727 292.852 C 188.053 291.166,190.188 291.164,191.717 292.848 M238.991 292.311 C 239.832 292.975,240.625 294.801,240.625 296.074 L 240.625 297.266 237.891 297.266 C 234.887 297.266,234.551 297.603,235.899 299.268 C 236.597 300.131,236.727 300.154,238.086 299.663 C 239.921 298.999,240.742 299.573,239.664 300.764 C 238.039 302.559,234.409 301.922,233.540 299.688 C 231.612 294.733,235.461 289.523,238.991 292.311 M246.803 292.706 C 246.908 293.587,246.777 293.750,245.972 293.750 C 244.496 293.750,244.182 294.490,244.059 298.263 C 243.955 301.459,243.879 301.758,243.164 301.758 C 242.429 301.758,242.376 301.461,242.273 296.724 L 242.163 291.691 243.478 291.904 C 244.202 292.022,245.042 291.960,245.346 291.768 C 246.183 291.239,246.666 291.550,246.803 292.706 M107.031 296.864 C 107.031 302.503,106.645 304.073,105.055 304.895 C 103.458 305.721,101.292 305.641,100.809 304.739 C 100.294 303.777,100.619 303.516,102.331 303.516 C 103.884 303.516,104.688 302.959,104.688 301.883 C 104.688 301.293,104.548 301.252,103.755 301.613 C 101.507 302.638,99.624 300.430,99.615 296.758 C 99.605 292.677,100.387 291.880,104.395 291.887 L 107.031 291.891 107.031 296.864 M115.223 292.848 C 115.898 293.706,116.016 294.428,116.016 297.709 L 116.016 301.563 114.857 301.563 L 113.699 301.563 113.588 297.563 C 113.488 293.967,113.400 293.549,112.721 293.419 C 111.412 293.168,110.938 294.419,110.938 298.122 C 110.938 301.531,110.929 301.563,109.961 301.563 L 108.984 301.563 108.984 296.727 L 108.984 291.891 111.707 291.865 C 114.184 291.842,114.502 291.931,115.223 292.848 M119.922 296.680 L 119.922 301.563 118.945 301.563 L 117.969 301.563 117.969 296.680 L 117.969 291.797 118.945 291.797 L 119.922 291.797 119.922 296.680 M165.625 296.680 L 165.625 301.563 164.648 301.563 L 163.672 301.563 163.672 296.680 L 163.672 291.797 164.648 291.797 L 165.625 291.797 165.625 296.680 M218.541 292.724 C 221.272 295.456,219.441 301.944,215.936 301.952 C 212.873 301.958,210.957 297.111,212.695 293.750 C 213.822 291.570,216.855 291.038,218.541 292.724 M223.377 294.459 C 223.986 297.294,224.191 297.262,225.001 294.206 C 226.085 290.114,227.252 290.822,228.439 296.289 L 228.778 297.852 229.467 294.824 C 230.092 292.081,230.244 291.797,231.094 291.797 C 232.251 291.797,232.253 291.698,231.002 296.789 C 229.532 302.773,228.359 303.511,227.328 299.102 C 226.589 295.945,226.392 295.910,225.648 298.801 C 224.418 303.574,223.589 303.129,221.913 296.797 C 220.457 291.295,220.468 291.718,221.775 291.869 C 222.751 291.981,222.895 292.214,223.377 294.459 M253.883 292.749 C 254.440 293.342,254.854 294.374,254.979 295.483 L 255.180 297.266 252.368 297.266 C 249.636 297.266,249.564 297.290,249.818 298.145 C 250.177 299.354,251.213 300.086,252.148 299.792 C 254.380 299.090,254.688 299.109,254.688 299.944 C 254.688 302.034,250.583 302.454,248.793 300.548 C 247.397 299.063,247.401 294.293,248.799 292.805 C 250.103 291.416,252.605 291.389,253.883 292.749 M281.093 294.727 C 281.986 297.633,282.072 297.606,282.918 294.141 C 283.378 292.257,283.572 291.977,284.495 291.869 C 285.812 291.714,285.854 291.315,283.822 298.170 C 281.978 304.388,281.357 305.469,279.627 305.469 C 278.166 305.469,278.061 304.060,279.481 303.520 C 281.120 302.897,281.134 301.491,279.553 296.686 C 277.846 291.499,277.862 291.714,279.188 291.869 C 280.136 291.979,280.343 292.290,281.093 294.727 M294.567 293.781 C 294.271 294.945,293.948 296.118,293.848 296.387 C 293.735 296.691,294.013 296.873,294.587 296.869 C 296.384 296.857,296.558 296.438,295.800 293.949 L 295.104 291.663 294.567 293.781 M102.171 294.228 C 100.655 296.392,101.893 300.444,103.878 299.814 C 104.678 299.560,104.958 298.038,104.774 294.954 C 104.674 293.269,103.141 292.842,102.171 294.228 M130.187 293.848 C 129.078 295.281,129.270 295.703,131.030 295.703 C 132.608 295.703,132.722 295.636,132.517 294.824 C 132.161 293.414,130.923 292.895,130.187 293.848 M138.910 293.958 C 136.940 295.928,138.383 301.108,140.527 299.762 C 141.540 299.126,141.725 294.559,140.767 293.858 C 139.890 293.217,139.638 293.230,138.910 293.958 M179.345 293.887 C 177.454 296.165,179.372 301.330,181.464 299.594 C 182.391 298.825,182.244 294.282,181.276 293.764 C 180.274 293.228,179.871 293.254,179.345 293.887 M214.844 293.946 C 214.126 294.810,213.949 297.698,214.544 298.825 C 215.728 301.065,217.578 299.843,217.578 296.821 C 217.578 293.757,216.201 292.309,214.844 293.946 M235.770 293.973 C 234.670 295.073,235.016 295.703,236.719 295.703 C 237.963 295.703,238.281 295.560,238.281 295.000 C 238.281 293.500,236.834 292.909,235.770 293.973 M250.499 293.848 C 249.420 295.242,249.590 295.703,251.184 295.703 C 252.417 295.703,252.734 295.559,252.734 295.000 C 252.734 293.630,251.257 292.868,250.499 293.848 M259.480 293.616 C 258.129 294.162,258.130 298.913,259.481 299.765 C 260.757 300.570,261.511 299.596,261.639 296.977 C 261.778 294.131,261.041 292.984,259.480 293.616 M272.508 293.954 C 271.395 295.067,271.630 299.124,272.840 299.675 C 274.166 300.279,274.895 299.602,275.215 297.466 C 275.651 294.562,274.018 292.444,272.508 293.954 M196.019 300.689 C 196.164 302.149,195.139 304.297,194.298 304.297 C 193.791 304.297,193.738 303.936,193.970 302.051 C 194.340 299.041,195.762 298.096,196.019 300.689 " stroke="none" fill="#fbfbfb" fill-rule="evenodd"></path><path id="path2" d="M200.103 97.937 C 200.697 98.026,201.576 98.024,202.056 97.931 C 202.537 97.839,202.051 97.765,200.977 97.768 C 199.902 97.771,199.509 97.847,200.103 97.937 M194.727 101.537 C 187.550 102.807,171.330 107.446,170.206 108.549 C 169.932 108.818,174.894 113.258,176.795 114.445 C 177.467 114.864,178.226 114.727,181.859 113.530 C 191.493 110.356,198.599 109.164,203.027 109.979 C 207.600 110.821,214.763 112.634,218.330 113.853 C 219.925 114.398,221.369 114.844,221.538 114.844 C 222.184 114.844,228.966 108.889,228.651 108.598 C 227.367 107.410,212.750 103.128,205.345 101.771 C 199.113 100.628,199.776 100.643,194.727 101.537 M165.039 106.647 C 164.168 107.076,163.908 107.309,164.453 107.174 C 165.594 106.893,167.564 105.893,166.992 105.885 C 166.777 105.882,165.898 106.225,165.039 106.647 M232.813 106.409 C 232.813 106.496,233.604 106.837,234.570 107.166 C 236.677 107.884,236.901 107.672,234.913 106.841 C 233.500 106.251,232.813 106.109,232.813 106.409 M160.546 112.634 C 153.464 115.925,153.112 116.126,152.906 116.973 C 152.799 117.413,152.761 123.705,152.821 130.954 L 152.930 144.135 157.129 141.017 L 161.328 137.899 161.328 129.877 L 161.328 121.855 164.355 120.466 C 166.021 119.702,168.481 118.633,169.824 118.091 C 172.889 116.853,172.922 117.011,168.852 113.495 C 164.798 109.994,165.967 110.115,160.546 112.634 M230.078 113.508 C 226.319 116.799,226.173 117.013,227.420 117.403 C 228.495 117.739,237.158 121.793,237.474 122.109 C 237.596 122.230,237.783 125.859,237.891 130.174 L 238.086 138.019 242.038 141.033 L 245.990 144.046 246.234 141.457 C 246.554 138.076,246.550 129.762,246.226 122.271 L 245.967 116.294 240.464 113.655 C 233.056 110.104,233.952 110.117,230.078 113.508 M188.535 124.979 C 187.707 125.404,186.301 126.348,185.410 127.078 C 184.518 127.807,183.074 128.768,182.200 129.212 C 180.549 130.053,177.752 132.844,177.711 133.693 C 177.697 133.960,176.950 134.708,176.050 135.355 C 174.184 136.695,172.811 139.116,172.424 141.748 C 172.254 142.902,171.754 144.018,171.042 144.835 C 168.279 148.006,167.194 153.290,168.457 157.422 C 168.943 159.013,168.923 159.343,168.243 160.897 C 166.597 164.656,167.770 171.256,170.547 173.865 C 171.136 174.418,171.488 175.192,171.493 175.947 C 171.514 178.944,173.761 181.746,178.711 184.950 C 180.430 186.062,183.207 187.957,184.882 189.161 C 190.452 193.163,195.353 192.890,197.309 188.468 C 198.518 185.736,198.274 128.747,197.046 127.103 C 194.989 124.348,191.470 123.470,188.535 124.979 M204.863 124.768 C 203.499 125.362,201.660 127.393,201.355 128.643 C 201.240 129.110,201.197 142.676,201.257 158.789 L 201.367 188.086 202.277 189.361 C 205.732 194.205,208.819 193.257,223.227 182.934 C 225.485 181.316,227.002 178.960,227.238 176.704 C 227.380 175.352,227.750 174.467,228.520 173.633 C 231.439 170.474,232.416 165.511,230.923 161.417 C 230.157 159.315,230.140 159.033,230.676 157.253 C 231.967 152.962,231.045 148.425,228.249 145.316 C 227.128 144.069,226.563 143.081,226.563 142.371 C 226.563 140.040,225.610 138.088,223.350 135.794 C 222.109 134.533,221.094 133.353,221.094 133.171 C 221.094 132.392,218.470 129.949,216.637 129.022 C 215.543 128.468,213.879 127.339,212.939 126.512 C 210.434 124.311,207.412 123.658,204.863 124.768 M193.840 128.429 C 195.089 129.509,195.078 141.755,193.828 141.499 C 193.553 141.442,192.965 141.590,192.521 141.828 C 191.723 142.254,191.715 142.202,191.805 137.438 C 191.918 131.433,191.989 131.854,190.772 131.299 C 188.626 130.322,187.215 132.547,188.251 135.273 C 188.450 135.794,188.518 136.923,188.403 137.780 L 188.194 139.339 186.089 137.973 C 184.931 137.221,183.984 136.316,183.984 135.960 C 183.984 135.040,183.201 134.375,182.116 134.375 C 180.659 134.375,181.271 133.532,183.734 132.146 C 184.958 131.458,186.734 130.259,187.682 129.482 C 190.242 127.385,192.237 127.043,193.840 128.429 M209.297 127.893 C 209.877 128.194,210.787 128.908,211.320 129.478 C 211.853 130.048,213.372 131.031,214.696 131.663 C 217.550 133.025,218.072 133.853,216.438 134.422 C 215.747 134.663,215.214 135.185,215.069 135.761 C 214.939 136.280,214.351 136.953,213.763 137.258 C 213.175 137.562,212.359 138.180,211.950 138.632 C 210.469 140.268,210.197 138.546,211.166 133.676 C 211.607 131.459,209.698 130.092,208.136 131.506 C 207.515 132.068,207.422 132.804,207.422 137.130 L 207.422 142.107 206.152 142.050 C 204.483 141.974,204.383 141.589,204.336 135.029 L 204.297 129.627 205.439 128.486 C 206.702 127.223,207.711 127.067,209.297 127.893 M149.357 137.305 C 149.356 139.238,149.422 140.079,149.504 139.172 C 149.586 138.265,149.587 136.683,149.506 135.656 C 149.426 134.629,149.359 135.371,149.357 137.305 M179.883 138.672 C 180.372 139.212,181.086 139.453,182.198 139.453 C 184.178 139.453,186.343 141.085,187.562 143.495 C 188.014 144.387,188.624 145.258,188.918 145.430 C 189.740 145.910,189.556 146.717,188.461 147.435 C 187.916 147.793,187.181 148.689,186.829 149.427 C 185.566 152.076,182.554 153.394,181.487 151.766 C 179.044 148.038,174.339 149.059,174.487 153.284 C 174.560 155.356,172.629 157.525,171.615 156.511 C 169.764 154.660,171.949 147.778,174.901 146.163 C 176.308 145.393,176.500 145.145,176.170 144.528 C 174.482 141.374,177.714 136.276,179.883 138.672 M221.858 138.985 C 223.262 140.389,223.773 142.985,222.905 144.309 C 222.325 145.195,222.348 145.252,223.471 145.717 C 226.321 146.897,228.462 151.078,227.954 154.468 C 227.461 157.752,224.352 156.705,224.560 153.326 C 224.831 148.915,221.139 148.042,217.585 151.677 L 216.409 152.880 215.020 152.218 C 214.257 151.854,213.333 151.001,212.968 150.323 C 212.603 149.645,211.721 148.425,211.008 147.612 L 209.712 146.135 210.460 145.040 C 210.872 144.438,211.616 143.314,212.112 142.543 C 213.387 140.564,215.163 139.453,217.053 139.453 C 218.133 139.453,218.852 139.207,219.336 138.672 C 220.264 137.646,220.555 137.682,221.858 138.985 M179.641 142.581 C 178.738 143.108,177.994 145.128,178.281 146.271 C 179.104 149.550,183.942 149.694,184.966 146.469 C 185.864 143.639,182.293 141.031,179.641 142.581 M215.021 143.146 C 213.683 144.485,213.696 146.785,215.050 148.057 C 217.102 149.985,220.349 148.748,220.935 145.816 C 221.511 142.930,217.189 140.978,215.021 143.146 M156.893 146.247 L 152.654 149.363 152.846 159.935 C 153.007 168.820,153.167 171.056,153.850 173.945 C 157.764 190.507,171.335 204.914,194.573 217.180 L 199.615 219.842 204.318 217.340 C 226.759 205.402,240.963 190.852,244.750 175.922 C 246.630 168.511,247.341 150.307,245.801 149.039 C 245.425 148.730,243.503 147.253,241.530 145.756 L 237.944 143.035 237.801 156.772 C 237.659 170.469,237.656 170.518,236.582 174.004 C 232.663 186.728,221.249 198.347,202.657 208.540 L 199.651 210.188 197.384 209.037 C 182.288 201.369,169.845 190.079,164.823 179.492 C 161.694 172.896,161.612 172.362,161.357 156.819 L 161.133 143.131 156.893 146.247 M194.989 143.615 C 196.295 144.798,195.349 146.875,193.503 146.875 C 191.665 146.875,190.785 143.685,192.499 143.234 C 193.780 142.897,194.280 142.974,194.989 143.615 M206.791 143.957 C 207.757 144.922,206.762 146.875,205.304 146.875 C 204.229 146.875,203.516 146.174,203.516 145.117 C 203.516 143.458,205.566 142.731,206.791 143.957 M207.031 149.789 C 207.031 152.653,207.515 153.370,210.041 154.257 C 213.923 155.620,214.063 155.751,214.063 158.034 C 214.063 160.935,217.467 163.629,218.679 161.687 C 219.127 160.971,219.066 160.762,218.164 159.926 C 217.348 159.171,217.165 158.682,217.262 157.520 C 217.411 155.719,218.546 155.273,219.123 156.789 C 219.579 157.990,221.075 158.795,223.508 159.149 C 229.197 159.976,230.407 168.638,225.328 172.178 C 223.871 173.193,223.812 173.317,224.031 174.882 C 224.444 177.829,223.785 178.584,216.016 184.070 C 206.376 190.876,204.297 190.585,204.297 182.428 C 204.297 176.903,205.203 175.346,208.351 175.464 C 210.093 175.530,211.328 174.506,211.328 172.996 C 211.328 170.911,207.700 169.952,205.716 171.514 C 204.333 172.601,204.187 172.143,204.358 167.231 C 204.530 162.240,206.235 160.156,210.144 160.156 C 211.709 160.156,211.975 157.665,210.449 157.291 C 208.140 156.724,205.555 156.575,205.296 156.994 C 204.421 158.411,203.850 152.331,204.537 148.898 C 204.760 147.781,204.952 147.643,206.738 147.319 C 206.899 147.290,207.031 148.401,207.031 149.789 M194.666 156.759 C 194.509 157.309,194.348 157.365,193.925 157.014 C 193.518 156.676,192.707 156.680,190.638 157.029 L 187.891 157.492 187.891 158.774 C 187.891 160.007,187.958 160.062,189.693 160.258 C 193.416 160.677,194.923 162.903,194.915 167.969 C 194.909 172.101,194.569 172.804,193.200 171.518 C 192.404 170.770,191.948 170.640,190.787 170.828 C 186.789 171.477,187.002 175.347,191.047 175.553 C 192.355 175.620,192.923 175.900,193.845 176.933 L 195.003 178.228 194.861 182.706 C 194.644 189.525,192.603 190.515,186.841 186.596 C 174.845 178.437,174.221 177.806,175.079 174.699 C 175.388 173.579,175.346 173.248,174.861 172.977 C 168.619 169.484,169.306 160.071,175.865 159.207 C 177.977 158.929,180.078 157.502,180.078 156.345 C 180.078 156.008,180.409 155.852,180.957 155.930 C 182.322 156.124,182.395 158.507,181.073 159.748 C 180.526 160.262,180.084 160.872,180.091 161.103 C 180.190 164.483,185.049 161.447,185.235 157.888 L 185.352 155.667 187.882 154.766 C 191.426 153.505,191.797 153.085,191.797 150.323 C 191.797 148.102,191.826 148.039,192.731 148.266 C 193.306 148.411,193.794 148.301,194.000 147.981 C 194.375 147.401,194.996 155.596,194.666 156.759 M221.622 162.497 C 220.567 162.923,220.220 163.484,219.938 165.217 C 219.627 167.132,218.968 167.098,215.690 165.000 C 212.214 162.777,210.113 162.386,208.496 163.662 C 206.356 165.351,207.275 167.434,210.672 168.591 C 213.440 169.535,214.453 170.989,214.453 174.021 C 214.453 177.081,214.650 177.614,216.044 178.335 C 219.147 179.940,222.262 176.940,220.278 174.256 C 219.290 172.920,219.408 171.345,220.508 171.180 C 222.439 170.891,223.062 170.640,224.181 169.698 C 227.653 166.777,225.566 160.906,221.622 162.497 M174.541 162.906 C 171.733 164.544,173.719 170.298,177.315 170.945 C 179.810 171.393,180.291 172.351,178.906 174.112 C 176.559 177.096,181.214 180.671,183.806 177.875 C 184.638 176.977,184.756 176.497,184.720 174.157 C 184.669 170.786,185.026 170.242,188.479 168.428 C 191.058 167.073,191.218 166.909,191.333 165.518 C 191.593 162.372,187.824 162.146,183.414 165.043 C 179.854 167.381,178.906 167.304,178.906 164.677 C 178.906 162.909,176.328 161.863,174.541 162.906 M187.979 178.048 C 187.490 178.122,186.699 178.716,186.221 179.369 C 185.743 180.023,185.000 180.702,184.570 180.879 C 183.943 181.137,183.919 181.205,184.446 181.225 C 184.808 181.239,185.214 181.597,185.348 182.021 C 186.184 184.655,190.384 185.167,191.616 182.785 C 193.034 180.043,191.138 177.574,187.979 178.048 M209.124 178.113 C 206.602 179.156,206.298 182.602,208.622 183.804 C 210.393 184.720,211.296 184.494,213.071 182.695 L 214.728 181.014 213.321 179.595 C 211.791 178.052,210.433 177.572,209.124 178.113 M222.070 210.208 C 220.096 211.686,219.432 212.360,220.508 211.794 C 221.340 211.356,224.157 209.009,223.828 209.027 C 223.721 209.033,222.930 209.564,222.070 210.208 " stroke="none" fill="#9ae6ea" fill-rule="evenodd"></path><path id="path3" d="M196.680 97.932 C 193.826 98.140,191.103 98.687,181.406 101.001 C 174.263 102.706,155.287 110.883,152.801 113.328 C 149.778 116.300,149.584 117.392,149.642 131.094 C 149.826 174.855,149.507 170.394,153.195 180.859 C 157.302 192.516,166.514 202.988,182.227 213.864 C 195.120 222.788,198.954 223.788,206.445 220.179 C 208.594 219.144,210.879 217.912,211.523 217.441 C 212.168 216.971,213.137 216.362,213.676 216.089 C 215.613 215.109,224.096 208.815,227.734 205.660 C 234.805 199.526,236.908 197.166,242.356 189.252 C 244.040 186.805,246.978 179.355,248.331 174.100 L 249.357 170.117 249.379 144.336 L 249.401 118.555 248.391 116.387 C 246.635 112.619,241.851 109.879,227.930 104.668 C 219.584 101.545,218.326 101.159,210.742 99.401 C 205.761 98.247,200.258 97.672,196.680 97.932 M205.345 101.771 C 212.455 103.074,220.383 105.331,227.889 108.187 L 229.020 108.618 228.084 109.680 C 227.570 110.264,227.303 110.617,227.493 110.463 C 227.682 110.309,228.205 110.441,228.654 110.756 C 229.103 111.071,230.074 111.328,230.812 111.328 L 232.152 111.328 231.417 112.207 C 231.012 112.690,231.313 112.503,232.086 111.790 L 233.491 110.494 235.984 111.543 C 237.355 112.119,240.162 113.437,242.223 114.471 L 245.969 116.351 246.227 122.300 C 246.552 129.810,246.553 138.085,246.229 141.518 L 245.978 144.168 244.965 143.276 L 243.951 142.383 244.692 143.262 C 245.112 143.759,245.238 144.141,244.982 144.141 C 244.706 144.141,244.531 144.841,244.531 145.946 C 244.531 147.341,244.416 147.674,244.025 147.411 C 243.517 147.070,244.514 147.985,245.801 149.041 C 247.342 150.305,246.630 168.511,244.750 175.922 C 240.963 190.852,226.759 205.402,204.318 217.340 L 199.615 219.842 194.573 217.180 C 171.335 204.914,157.760 190.502,153.850 173.945 C 153.170 171.063,153.007 168.806,152.844 159.978 L 152.649 149.447 153.720 148.593 C 154.870 147.677,155.530 144.466,154.677 143.939 C 154.389 143.761,154.417 143.483,154.766 143.047 C 155.061 142.679,154.742 142.786,154.004 143.304 L 152.734 144.194 152.740 130.593 C 152.747 115.062,152.398 116.575,156.445 114.553 C 162.835 111.362,165.236 110.453,165.875 110.983 C 167.469 112.305,171.761 110.759,170.466 109.329 C 169.695 108.477,169.456 108.594,177.148 106.053 C 183.093 104.089,189.258 102.505,194.727 101.537 C 199.776 100.643,199.113 100.628,205.345 101.771 M198.926 109.644 C 199.302 109.743,199.917 109.743,200.293 109.644 C 200.669 109.546,200.361 109.466,199.609 109.466 C 198.857 109.466,198.550 109.546,198.926 109.644 M167.188 111.841 C 167.188 111.908,167.759 112.479,168.457 113.111 L 169.727 114.258 168.579 112.988 C 167.510 111.805,167.188 111.539,167.188 111.841 M161.589 121.745 C 161.445 121.888,161.328 125.544,161.328 129.870 C 161.328 135.609,161.196 137.882,160.840 138.282 C 160.426 138.746,160.453 138.753,161.020 138.325 C 161.553 137.923,162.394 121.478,161.882 121.484 C 161.864 121.484,161.732 121.602,161.589 121.745 M237.589 130.128 C 237.509 137.029,237.568 137.849,238.184 138.331 C 238.787 138.804,238.811 138.795,238.388 138.252 C 238.056 137.826,237.872 135.293,237.793 130.049 L 237.677 122.461 237.589 130.128 M204.420 134.961 C 204.365 141.555,204.468 141.973,206.152 142.050 C 207.371 142.105,207.422 142.048,207.422 140.633 C 207.422 138.978,206.650 138.086,205.483 138.391 C 204.752 138.582,204.705 138.351,204.588 134.042 L 204.465 129.492 204.420 134.961 M194.652 132.227 C 194.654 133.516,194.727 133.996,194.814 133.294 C 194.901 132.592,194.899 131.537,194.810 130.950 C 194.721 130.363,194.650 130.938,194.652 132.227 M200.781 136.989 C 200.781 142.722,200.696 143.782,200.278 143.211 C 199.759 142.501,198.849 142.479,198.346 143.164 C 198.188 143.379,198.082 146.895,198.111 150.977 C 198.140 155.059,198.237 157.914,198.327 157.322 C 198.477 156.332,198.540 156.297,199.121 156.877 C 199.702 157.458,199.792 157.453,200.261 156.812 C 200.684 156.233,200.789 158.323,200.879 169.171 C 200.939 176.352,201.029 170.493,201.080 156.152 C 201.130 141.812,201.084 130.078,200.977 130.078 C 200.869 130.078,200.781 133.188,200.781 136.989 M207.650 131.604 C 207.202 132.099,207.030 132.786,207.137 133.655 L 207.297 134.961 207.359 133.625 C 207.394 132.889,207.713 131.967,208.068 131.574 C 208.424 131.181,208.627 130.859,208.520 130.859 C 208.412 130.859,208.021 131.194,207.650 131.604 M210.609 131.445 C 210.965 131.875,211.337 132.666,211.435 133.203 L 211.612 134.180 211.666 133.166 C 211.698 132.547,211.376 131.862,210.840 131.408 C 209.968 130.670,209.966 130.670,210.609 131.445 M181.719 133.281 C 181.005 133.995,181.156 134.380,182.129 134.330 C 182.822 134.294,182.859 134.246,182.303 134.102 C 181.744 133.957,181.694 133.805,182.058 133.366 C 182.617 132.692,182.369 132.631,181.719 133.281 M222.656 134.888 C 222.656 134.955,223.228 135.526,223.926 136.157 L 225.195 137.305 224.048 136.035 C 222.979 134.852,222.656 134.586,222.656 134.888 M210.617 137.402 C 210.540 139.653,210.826 139.904,211.951 138.574 L 212.695 137.695 211.839 138.419 L 210.984 139.142 210.836 137.247 L 210.688 135.352 210.617 137.402 M192.676 137.978 C 191.942 138.331,191.797 138.716,191.797 140.308 C 191.797 142.081,191.851 142.186,192.562 141.805 C 192.983 141.580,193.555 141.442,193.832 141.499 C 194.189 141.572,194.336 141.042,194.336 139.681 C 194.336 137.615,194.047 137.319,192.676 137.978 M185.317 140.918 C 185.976 141.699,185.913 141.964,185.095 141.855 C 184.534 141.780,186.067 144.207,186.942 144.781 C 187.934 145.431,188.118 146.964,187.331 148.024 C 187.102 148.334,187.485 148.169,188.184 147.657 C 189.541 146.664,189.782 145.934,188.918 145.430 C 188.624 145.258,188.026 144.414,187.589 143.555 C 187.152 142.695,186.296 141.553,185.685 141.016 C 184.742 140.185,184.687 140.171,185.317 140.918 M180.957 142.066 C 181.333 142.164,181.948 142.164,182.324 142.066 C 182.700 141.968,182.393 141.888,181.641 141.888 C 180.889 141.888,180.581 141.968,180.957 142.066 M212.006 142.421 C 211.878 142.549,211.878 142.930,212.007 143.266 C 212.176 143.705,212.085 143.796,211.687 143.590 C 211.382 143.431,211.422 143.540,211.775 143.832 C 212.333 144.292,212.346 144.461,211.873 145.107 C 211.349 145.823,211.328 145.817,211.328 144.944 C 211.328 144.041,211.323 144.042,210.491 145.099 L 209.655 146.163 210.964 147.398 C 211.683 148.077,211.948 148.241,211.552 147.762 C 210.897 146.971,210.890 146.869,211.470 146.646 C 211.822 146.511,212.109 146.177,212.109 145.904 C 212.109 145.632,212.369 145.192,212.687 144.929 C 213.153 144.542,213.175 144.287,212.799 143.611 C 212.543 143.150,212.371 142.642,212.417 142.480 C 212.517 142.128,212.327 142.101,212.006 142.421 M237.656 148.633 C 237.657 151.855,237.717 153.122,237.791 151.447 C 237.864 149.772,237.864 147.135,237.790 145.588 C 237.716 144.040,237.656 145.410,237.656 148.633 M227.734 144.727 C 228.463 145.479,229.147 146.094,229.255 146.094 C 229.362 146.094,228.854 145.479,228.125 144.727 C 227.396 143.975,226.712 143.359,226.605 143.359 C 226.497 143.359,227.006 143.975,227.734 144.727 M213.763 145.703 C 213.763 146.455,213.843 146.763,213.941 146.387 C 214.039 146.011,214.039 145.396,213.941 145.020 C 213.843 144.644,213.763 144.951,213.763 145.703 M205.611 147.535 C 204.566 147.740,204.297 148.968,204.297 153.541 C 204.297 156.781,204.661 158.022,205.307 156.977 C 205.483 156.692,205.420 156.625,205.138 156.799 C 204.823 156.994,204.697 156.573,204.718 155.394 C 204.735 154.468,204.841 153.941,204.954 154.223 C 205.114 154.623,205.319 154.590,205.886 154.077 C 206.327 153.678,206.998 153.493,207.592 153.606 C 208.130 153.709,208.477 153.643,208.364 153.459 C 208.250 153.275,207.904 153.125,207.594 153.125 C 207.285 153.125,207.052 152.993,207.078 152.832 C 207.250 151.738,206.976 147.276,206.738 147.319 C 206.577 147.348,206.070 147.446,205.611 147.535 M193.942 148.053 C 193.785 148.306,193.259 148.399,192.731 148.266 C 191.824 148.039,191.797 148.100,191.797 150.355 C 191.797 152.399,191.673 152.775,190.768 153.487 C 190.202 153.933,189.928 154.297,190.159 154.297 C 190.390 154.297,190.697 154.106,190.841 153.872 C 191.006 153.606,191.586 153.915,192.393 154.697 C 193.102 155.385,193.860 155.837,194.077 155.703 C 194.294 155.569,194.548 155.769,194.640 156.148 C 194.733 156.526,194.722 154.814,194.617 152.344 C 194.413 147.580,194.377 147.349,193.942 148.053 M181.249 151.465 C 181.760 152.163,182.239 152.734,182.314 152.734 C 182.610 152.734,181.642 151.269,181.001 150.749 C 180.579 150.406,180.674 150.679,181.249 151.465 M167.695 153.125 C 167.695 154.307,167.768 154.790,167.858 154.199 C 167.947 153.608,167.947 152.642,167.858 152.051 C 167.768 151.460,167.695 151.943,167.695 153.125 M227.841 153.125 C 227.841 154.092,227.917 154.487,228.010 154.004 C 228.103 153.521,228.103 152.729,228.010 152.246 C 227.917 151.763,227.841 152.158,227.841 153.125 M185.313 156.014 C 185.198 156.313,185.164 157.236,185.238 158.064 C 185.361 159.460,185.385 159.420,185.557 157.519 C 185.746 155.426,185.685 155.046,185.313 156.014 M192.773 156.533 C 193.203 156.638,193.818 156.926,194.141 157.171 C 194.650 157.559,194.657 157.528,194.190 156.934 C 193.896 156.558,193.280 156.270,192.823 156.295 C 192.034 156.338,192.031 156.350,192.773 156.533 M187.654 157.584 C 187.019 159.239,187.652 160.350,189.258 160.398 L 190.820 160.445 189.355 160.277 C 187.543 160.069,187.063 157.636,188.770 157.307 L 189.648 157.138 188.757 157.084 C 188.267 157.055,187.771 157.280,187.654 157.584 M211.381 158.863 C 211.333 160.003,211.204 160.122,209.863 160.262 L 208.398 160.416 209.876 160.481 C 211.478 160.552,211.903 160.073,211.608 158.525 C 211.473 157.821,211.423 157.897,211.381 158.863 M192.067 161.310 C 192.753 161.728,193.581 162.562,193.907 163.164 C 194.233 163.766,194.507 164.021,194.516 163.730 C 194.536 163.053,192.040 160.546,191.348 160.548 C 191.058 160.549,191.381 160.892,192.067 161.310 M205.668 162.105 C 205.053 162.748,204.624 163.335,204.716 163.412 C 204.808 163.488,205.384 162.962,205.996 162.244 C 207.377 160.622,207.172 160.535,205.668 162.105 M228.242 165.625 C 228.242 166.807,228.315 167.290,228.405 166.699 C 228.494 166.108,228.494 165.142,228.405 164.551 C 228.315 163.960,228.242 164.443,228.242 165.625 M204.379 167.848 C 204.303 171.545,204.625 172.925,205.307 171.821 C 205.480 171.541,205.420 171.468,205.152 171.634 C 204.844 171.825,204.678 170.724,204.588 167.886 L 204.462 163.867 204.379 167.848 M191.465 165.533 C 191.419 166.521,191.120 166.983,190.137 167.582 C 189.438 168.008,189.077 168.357,189.334 168.358 C 190.453 168.361,191.868 166.600,191.695 165.420 L 191.523 164.258 191.465 165.533 M194.672 167.969 C 194.672 170.010,194.738 170.845,194.818 169.824 C 194.899 168.804,194.899 167.134,194.818 166.113 C 194.738 165.093,194.672 165.928,194.672 167.969 M231.731 165.625 C 231.731 166.377,231.812 166.685,231.910 166.309 C 232.008 165.933,232.008 165.317,231.910 164.941 C 231.812 164.565,231.731 164.873,231.731 165.625 M191.406 170.595 C 191.943 170.692,192.822 171.152,193.359 171.616 L 194.336 172.461 193.389 171.387 C 192.775 170.690,192.088 170.331,191.436 170.366 L 190.430 170.419 191.406 170.595 M206.489 170.632 C 206.380 170.808,206.809 170.876,207.443 170.783 C 208.076 170.690,208.594 170.547,208.594 170.463 C 208.594 170.166,206.683 170.319,206.489 170.632 M214.191 174.023 C 214.192 175.527,214.263 176.095,214.348 175.284 C 214.432 174.474,214.431 173.243,214.344 172.550 C 214.258 171.856,214.189 172.520,214.191 174.023 M179.342 172.480 C 179.317 172.921,179.122 173.493,178.908 173.751 C 178.694 174.010,178.798 173.978,179.140 173.680 C 179.483 173.383,179.678 172.811,179.575 172.409 C 179.406 171.752,179.383 171.759,179.342 172.480 M228.158 173.989 C 227.649 174.530,227.352 175.236,227.458 175.649 C 227.631 176.316,227.647 176.313,227.689 175.611 C 227.714 175.195,228.117 174.448,228.584 173.951 C 229.051 173.454,229.345 173.047,229.238 173.047 C 229.130 173.047,228.644 173.471,228.158 173.989 M194.676 182.031 C 194.676 184.287,194.740 185.210,194.819 184.082 C 194.898 182.954,194.898 181.108,194.819 179.980 C 194.740 178.853,194.676 179.775,194.676 182.031 M204.445 182.422 C 204.445 184.893,204.508 185.903,204.586 184.668 C 204.663 183.433,204.663 181.411,204.586 180.176 C 204.508 178.940,204.445 179.951,204.445 182.422 M183.376 180.823 C 183.496 181.017,183.946 181.085,184.375 180.972 C 185.450 180.691,185.354 180.469,184.157 180.469 C 183.607 180.469,183.255 180.628,183.376 180.823 M226.541 190.527 L 225.195 191.992 226.660 190.646 C 228.024 189.393,228.305 189.063,228.006 189.063 C 227.941 189.063,227.282 189.722,226.541 190.527 M222.635 194.434 L 221.289 195.898 222.754 194.552 C 224.117 193.299,224.398 192.969,224.100 192.969 C 224.035 192.969,223.376 193.628,222.635 194.434 M259.277 242.079 C 259.976 242.166,261.118 242.166,261.816 242.079 C 262.515 241.993,261.943 241.922,260.547 241.922 C 259.150 241.922,258.579 241.993,259.277 242.079 M200.675 243.641 C 201.368 243.728,202.599 243.729,203.409 243.644 C 204.220 243.560,203.652 243.489,202.148 243.488 C 200.645 243.486,199.981 243.555,200.675 243.641 M157.924 247.461 C 157.927 248.535,158.003 248.928,158.093 248.334 C 158.183 247.741,158.180 246.862,158.087 246.381 C 157.995 245.901,157.921 246.387,157.924 247.461 M117.359 261.914 C 117.359 267.930,117.414 270.336,117.480 267.262 C 117.546 264.187,117.546 259.265,117.479 256.324 C 117.413 253.383,117.359 255.898,117.359 261.914 M138.844 261.914 C 138.844 267.930,138.898 270.336,138.964 267.262 C 139.030 264.187,139.030 259.265,138.964 256.324 C 138.897 253.383,138.843 255.898,138.844 261.914 M155.580 252.930 C 155.583 254.004,155.659 254.397,155.749 253.803 C 155.839 253.209,155.836 252.331,155.744 251.850 C 155.651 251.370,155.578 251.855,155.580 252.930 M157.972 261.523 C 157.972 265.176,158.031 266.722,158.103 264.961 C 158.175 263.199,158.175 260.210,158.104 258.320 C 158.032 256.430,157.973 257.871,157.972 261.523 M163.049 261.133 C 163.049 264.570,163.109 265.924,163.182 264.142 C 163.254 262.359,163.254 259.546,163.181 257.892 C 163.108 256.237,163.048 257.695,163.049 261.133 M153.286 262.500 C 153.286 266.260,153.344 267.798,153.416 265.918 C 153.487 264.038,153.487 260.962,153.416 259.082 C 153.344 257.202,153.286 258.740,153.286 262.500 M93.916 264.453 C 93.916 269.072,93.972 270.962,94.041 268.652 C 94.111 266.343,94.111 262.563,94.041 260.254 C 93.972 257.944,93.916 259.834,93.916 264.453 M143.910 263.086 C 143.909 266.738,143.968 268.285,144.040 266.523 C 144.113 264.761,144.113 261.773,144.041 259.882 C 143.969 257.992,143.910 259.434,143.910 263.086 M182.031 256.966 C 182.031 257.257,181.147 257.449,179.590 257.496 L 177.148 257.570 179.451 257.712 C 181.591 257.845,182.927 257.406,182.298 256.777 C 182.151 256.631,182.031 256.715,182.031 256.966 M148.212 264.844 C 148.212 269.248,148.269 271.050,148.338 268.848 C 148.408 266.646,148.408 263.042,148.338 260.840 C 148.269 258.638,148.212 260.439,148.212 264.844 M308.368 264.844 C 308.368 269.248,308.425 271.050,308.494 268.848 C 308.564 266.646,308.564 263.042,308.494 260.840 C 308.425 258.638,308.368 260.439,308.368 264.844 M120.851 261.719 C 120.851 264.189,120.914 265.200,120.992 263.965 C 121.069 262.729,121.069 260.708,120.992 259.473 C 120.914 258.237,120.851 259.248,120.851 261.719 M232.316 257.704 C 233.009 257.790,234.239 257.792,235.050 257.707 C 235.860 257.622,235.293 257.552,233.789 257.550 C 232.285 257.548,231.622 257.618,232.316 257.704 M298.967 260.742 C 298.966 262.676,299.032 263.516,299.114 262.609 C 299.195 261.703,299.196 260.121,299.116 259.094 C 299.035 258.067,298.968 258.809,298.967 260.742 M223.536 258.203 C 223.653 258.635,224.304 258.799,226.007 258.826 L 228.320 258.862 226.180 258.704 C 225.003 258.618,223.891 258.338,223.709 258.082 C 223.478 257.758,223.426 257.794,223.536 258.203 M271.575 258.984 C 271.575 259.736,271.655 260.044,271.754 259.668 C 271.852 259.292,271.852 258.677,271.754 258.301 C 271.655 257.925,271.575 258.232,271.575 258.984 M135.678 260.938 C 135.678 262.549,135.747 263.208,135.831 262.402 C 135.916 261.597,135.916 260.278,135.831 259.473 C 135.747 258.667,135.678 259.326,135.678 260.938 M126.847 260.048 C 127.540 260.134,128.771 260.135,129.581 260.051 C 130.392 259.966,129.824 259.896,128.320 259.894 C 126.816 259.892,126.153 259.961,126.847 260.048 M79.303 261.426 C 79.298 262.012,79.644 262.099,81.738 262.037 L 84.180 261.965 82.040 261.818 C 80.863 261.738,79.767 261.463,79.604 261.207 C 79.406 260.895,79.307 260.967,79.303 261.426 M98.983 266.797 C 98.983 269.912,99.044 271.187,99.118 269.629 C 99.192 268.071,99.192 265.522,99.118 263.965 C 99.044 262.407,98.983 263.682,98.983 266.797 M201.081 262.002 C 201.783 262.089,202.838 262.087,203.425 261.998 C 204.012 261.909,203.437 261.838,202.148 261.840 C 200.859 261.842,200.379 261.915,201.081 262.002 M303.259 265.430 C 303.260 267.148,303.329 267.803,303.412 266.884 C 303.494 265.965,303.493 264.559,303.409 263.759 C 303.325 262.959,303.257 263.711,303.259 265.430 M240.225 264.764 L 240.413 266.602 240.546 265.085 C 240.619 264.251,240.534 263.424,240.357 263.248 C 240.181 263.071,240.121 263.754,240.225 264.764 M112.035 272.070 C 112.123 272.822,112.264 273.438,112.347 273.438 C 112.431 273.438,112.500 272.822,112.500 272.070 C 112.500 271.318,112.360 270.703,112.188 270.703 C 112.016 270.703,111.947 271.318,112.035 272.070 M162.598 272.926 C 162.974 273.024,163.589 273.024,163.965 272.926 C 164.341 272.827,164.033 272.747,163.281 272.747 C 162.529 272.747,162.222 272.827,162.598 272.926 M141.622 287.959 C 141.302 288.919,141.208 292.579,141.504 292.578 C 141.665 292.578,141.797 291.523,141.797 290.234 C 141.797 287.899,142.611 286.872,143.113 288.574 C 143.271 289.111,143.297 289.091,143.235 288.481 C 143.143 287.591,141.881 287.182,141.622 287.959 M183.743 292.383 C 183.744 294.961,183.807 295.965,183.883 294.614 C 183.960 293.262,183.959 291.153,183.882 289.926 C 183.805 288.699,183.742 289.805,183.743 292.383 M263.413 290.625 C 263.413 292.236,263.482 292.896,263.566 292.090 C 263.650 291.284,263.650 289.966,263.566 289.160 C 263.482 288.354,263.413 289.014,263.413 290.625 M270.082 294.336 C 270.081 297.988,270.140 299.535,270.212 297.773 C 270.284 296.011,270.285 293.023,270.213 291.132 C 270.141 289.242,270.082 290.684,270.082 294.336 M150.112 290.430 C 150.115 291.504,150.191 291.897,150.280 291.303 C 150.370 290.709,150.368 289.831,150.275 289.350 C 150.182 288.870,150.109 289.355,150.112 290.430 M161.074 291.797 C 161.074 293.623,161.141 294.370,161.224 293.457 C 161.306 292.544,161.306 291.050,161.224 290.137 C 161.141 289.224,161.074 289.971,161.074 291.797 M202.894 295.117 C 202.894 298.770,202.952 300.316,203.025 298.554 C 203.097 296.792,203.097 293.804,203.026 291.914 C 202.954 290.023,202.895 291.465,202.894 295.117 M301.722 295.117 C 301.722 298.770,301.781 300.316,301.853 298.554 C 301.925 296.792,301.925 293.804,301.854 291.914 C 301.782 290.023,301.723 291.465,301.722 295.117 M205.566 290.113 C 205.942 290.211,206.558 290.211,206.934 290.113 C 207.310 290.015,207.002 289.934,206.250 289.934 C 205.498 289.934,205.190 290.015,205.566 290.113 M151.563 293.555 C 151.563 294.593,151.642 295.363,151.740 295.265 C 152.045 294.960,152.125 292.229,151.837 291.941 C 151.686 291.790,151.563 292.516,151.563 293.555 M242.357 292.309 C 242.249 292.591,242.217 294.832,242.286 297.290 L 242.411 301.758 242.495 297.000 C 242.575 292.407,242.609 292.236,243.457 292.073 L 244.336 291.903 243.445 291.850 C 242.955 291.821,242.465 292.027,242.357 292.309 M118.118 296.680 C 118.119 299.258,118.182 300.262,118.258 298.910 C 118.335 297.559,118.334 295.450,118.257 294.223 C 118.180 292.996,118.117 294.102,118.118 296.680 M109.127 297.070 C 109.128 299.219,109.194 300.048,109.273 298.913 C 109.352 297.778,109.351 296.020,109.271 295.006 C 109.191 293.993,109.126 294.922,109.127 297.070 M122.793 296.484 C 122.793 298.311,122.860 299.058,122.942 298.145 C 123.025 297.231,123.025 295.737,122.942 294.824 C 122.860 293.911,122.793 294.658,122.793 296.484 M140.897 293.765 C 141.154 294.095,141.428 295.502,141.506 296.890 L 141.646 299.414 141.722 296.825 C 141.782 294.764,141.658 294.127,141.113 293.700 C 140.514 293.230,140.487 293.238,140.897 293.765 M134.474 295.898 C 134.478 296.758,134.558 297.063,134.651 296.577 C 134.745 296.092,134.741 295.388,134.643 295.015 C 134.546 294.642,134.469 295.039,134.474 295.898 M169.672 298.047 C 169.672 300.088,169.738 300.923,169.818 299.902 C 169.899 298.882,169.899 297.212,169.818 296.191 C 169.738 295.171,169.672 296.006,169.672 298.047 M174.748 297.852 C 174.747 299.785,174.813 300.625,174.895 299.719 C 174.977 298.812,174.978 297.230,174.897 296.203 C 174.816 295.176,174.749 295.918,174.748 297.852 M263.422 298.047 C 263.422 300.088,263.488 300.923,263.568 299.902 C 263.649 298.882,263.649 297.212,263.568 296.191 C 263.488 295.171,263.422 296.006,263.422 298.047 M271.605 296.680 C 271.608 297.969,271.681 298.449,271.767 297.747 C 271.854 297.045,271.853 295.990,271.763 295.403 C 271.674 294.816,271.603 295.391,271.605 296.680 M115.761 298.047 C 115.761 299.873,115.829 300.620,115.911 299.707 C 115.993 298.794,115.993 297.300,115.911 296.387 C 115.829 295.474,115.761 296.221,115.761 298.047 M176.674 296.680 C 176.677 297.754,176.753 298.147,176.843 297.553 C 176.933 296.959,176.930 296.081,176.837 295.600 C 176.745 295.120,176.671 295.605,176.674 296.680 M254.778 296.094 C 254.778 296.846,254.859 297.153,254.957 296.777 C 255.055 296.401,255.055 295.786,254.957 295.410 C 254.859 295.034,254.778 295.342,254.778 296.094 M261.836 296.875 C 261.836 298.057,261.909 298.540,261.999 297.949 C 262.088 297.358,262.088 296.392,261.999 295.801 C 261.909 295.210,261.836 295.693,261.836 296.875 M127.450 296.875 C 127.450 297.842,127.526 298.237,127.619 297.754 C 127.713 297.271,127.713 296.479,127.619 295.996 C 127.526 295.513,127.450 295.908,127.450 296.875 M182.138 296.875 C 182.138 297.842,182.214 298.237,182.307 297.754 C 182.400 297.271,182.400 296.479,182.307 295.996 C 182.214 295.513,182.138 295.908,182.138 296.875 M212.208 296.680 C 212.212 297.539,212.292 297.845,212.386 297.359 C 212.479 296.873,212.476 296.170,212.378 295.796 C 212.280 295.423,212.204 295.820,212.208 296.680 M247.755 296.680 C 247.759 297.539,247.839 297.845,247.933 297.359 C 248.026 296.873,248.022 296.170,247.925 295.796 C 247.827 295.423,247.750 295.820,247.755 296.680 M130.176 295.972 C 130.552 296.071,131.167 296.071,131.543 295.972 C 131.919 295.874,131.611 295.794,130.859 295.794 C 130.107 295.794,129.800 295.874,130.176 295.972 M277.052 297.070 C 277.056 297.930,277.136 298.235,277.229 297.749 C 277.323 297.263,277.319 296.560,277.222 296.187 C 277.124 295.813,277.047 296.211,277.052 297.070 M163.789 298.828 C 163.789 300.010,163.862 300.493,163.952 299.902 C 164.041 299.312,164.041 298.345,163.952 297.754 C 163.862 297.163,163.789 297.646,163.789 298.828 M102.051 305.347 C 102.427 305.446,103.042 305.446,103.418 305.347 C 103.794 305.249,103.486 305.169,102.734 305.169 C 101.982 305.169,101.675 305.249,102.051 305.347 " stroke="none" fill="#70abbe" fill-rule="evenodd"></path><path id="path4" d="M191.211 93.990 C 187.208 94.768,185.062 95.215,184.180 95.453 C 175.348 97.834,174.911 97.968,172.402 99.069 C 171.725 99.366,171.022 99.610,170.839 99.612 C 170.657 99.613,170.026 99.866,169.436 100.173 C 168.847 100.480,167.177 101.116,165.726 101.585 C 162.160 102.738,151.291 108.124,149.685 109.533 C 146.471 112.353,145.466 114.941,145.034 121.504 C 144.369 131.602,144.966 167.099,145.887 172.266 C 146.437 175.347,147.723 179.969,148.447 181.465 C 148.871 182.342,149.219 183.243,149.219 183.467 C 149.219 183.973,152.113 190.051,153.034 191.480 C 153.666 192.461,156.983 196.833,157.423 197.266 C 157.532 197.373,158.138 198.164,158.769 199.023 C 160.116 200.858,164.953 205.700,167.941 208.203 C 169.094 209.170,170.496 210.382,171.054 210.898 C 171.613 211.413,173.828 213.138,175.977 214.732 C 178.125 216.326,180.146 217.839,180.469 218.094 C 181.630 219.013,188.629 223.445,189.326 223.703 C 189.718 223.848,190.127 224.071,190.234 224.198 C 191.014 225.124,196.212 226.562,198.775 226.563 C 204.371 226.563,213.597 222.283,221.484 216.030 C 222.451 215.264,224.253 213.959,225.488 213.130 C 226.724 212.302,227.734 211.474,227.734 211.291 C 227.734 211.107,228.247 210.693,228.873 210.369 C 230.087 209.741,238.960 201.114,240.743 198.828 C 241.329 198.076,242.776 196.143,243.958 194.531 C 245.140 192.920,246.247 191.424,246.418 191.208 C 246.770 190.763,249.219 185.646,249.219 185.357 C 249.219 185.253,249.731 184.111,250.357 182.819 C 250.983 181.526,251.432 180.469,251.355 180.469 C 251.277 180.469,251.550 179.491,251.961 178.297 C 254.097 172.089,254.446 166.471,254.240 141.602 C 254.232 140.742,254.247 136.699,254.272 132.617 C 254.367 117.247,253.254 112.048,249.359 109.659 C 249.088 109.493,248.600 109.091,248.273 108.764 C 247.947 108.438,246.663 107.712,245.422 107.152 C 244.180 106.592,242.002 105.451,240.581 104.617 C 239.160 103.782,236.348 102.515,234.331 101.800 C 232.314 101.086,228.744 99.771,226.397 98.879 C 224.050 97.986,221.765 97.184,221.319 97.096 C 220.873 97.007,217.520 96.195,213.867 95.291 C 206.250 93.404,196.966 92.871,191.211 93.990 M205.078 98.219 C 207.884 98.700,216.419 100.472,218.359 100.977 C 219.481 101.268,221.306 101.903,224.023 102.945 C 225.527 103.522,228.779 104.701,231.250 105.565 C 233.721 106.430,236.182 107.439,236.719 107.808 C 237.256 108.177,239.409 109.301,241.503 110.306 C 249.562 114.175,249.820 115.023,249.575 136.914 C 249.536 140.352,249.511 145.186,249.519 147.656 C 249.591 169.297,249.530 170.384,247.930 176.172 C 246.257 182.223,242.315 190.761,240.925 191.344 C 240.751 191.417,240.352 191.974,240.038 192.581 C 239.011 194.567,233.357 201.056,230.453 203.582 C 224.537 208.729,221.250 211.401,220.117 211.986 C 219.473 212.319,218.030 213.274,216.911 214.108 C 215.793 214.942,214.773 215.625,214.646 215.625 C 214.519 215.625,213.413 216.267,212.188 217.053 C 204.060 222.263,199.432 223.266,194.141 220.966 C 190.764 219.498,188.910 218.604,188.672 218.329 C 188.564 218.204,187.158 217.224,185.547 216.150 C 178.767 211.633,177.434 210.696,175.391 209.014 C 174.209 208.041,171.882 205.966,170.219 204.404 C 168.556 202.841,167.034 201.563,166.835 201.563 C 166.388 201.563,162.052 196.390,158.516 191.639 C 156.381 188.771,153.401 183.022,153.448 181.862 C 153.453 181.752,153.098 180.735,152.661 179.601 C 150.727 174.589,150.326 172.978,149.959 168.750 C 149.745 166.279,149.617 160.918,149.676 156.836 C 149.735 152.754,149.713 147.480,149.627 145.117 C 148.614 117.090,149.457 113.561,158.021 109.993 C 159.518 109.369,161.006 108.659,161.328 108.414 C 162.171 107.774,165.239 106.482,169.727 104.876 C 171.875 104.108,174.688 103.048,175.977 102.522 C 178.647 101.431,181.706 100.592,185.938 99.788 C 187.549 99.482,190.361 98.905,192.188 98.506 C 196.383 97.590,200.829 97.491,205.078 98.219 M257.949 248.047 C 257.949 249.873,258.016 250.620,258.099 249.707 C 258.181 248.794,258.181 247.300,258.099 246.387 C 258.016 245.474,257.949 246.221,257.949 248.047 M159.668 245.588 C 160.151 245.681,160.942 245.681,161.426 245.588 C 161.909 245.495,161.514 245.419,160.547 245.419 C 159.580 245.419,159.185 245.495,159.668 245.588 M163.012 247.852 C 163.014 249.141,163.087 249.621,163.174 248.919 C 163.261 248.217,163.259 247.162,163.170 246.575 C 163.081 245.988,163.009 246.563,163.012 247.852 M163.126 250.845 C 163.237 251.025,163.844 251.172,164.476 251.172 C 166.131 251.172,166.286 254.911,164.644 255.197 C 163.745 255.354,163.753 255.365,164.741 255.321 C 165.783 255.275,165.820 255.199,165.820 253.132 L 165.820 250.990 164.372 250.754 C 163.576 250.625,163.015 250.666,163.126 250.845 M220.410 250.660 C 220.786 250.758,221.401 250.758,221.777 250.660 C 222.153 250.562,221.846 250.481,221.094 250.481 C 220.342 250.481,220.034 250.562,220.410 250.660 M273.344 250.667 C 273.830 250.760,274.533 250.757,274.907 250.659 C 275.280 250.561,274.883 250.485,274.023 250.489 C 273.164 250.493,272.858 250.573,273.344 250.667 M293.457 250.660 C 293.833 250.758,294.448 250.758,294.824 250.660 C 295.200 250.562,294.893 250.481,294.141 250.481 C 293.389 250.481,293.081 250.562,293.457 250.660 M302.441 250.660 C 302.817 250.758,303.433 250.758,303.809 250.660 C 304.185 250.562,303.877 250.481,303.125 250.481 C 302.373 250.481,302.065 250.562,302.441 250.660 M95.222 251.064 C 95.924 251.151,96.979 251.149,97.566 251.060 C 98.153 250.971,97.578 250.900,96.289 250.902 C 95.000 250.904,94.520 250.977,95.222 251.064 M113.972 251.064 C 114.674 251.151,115.729 251.149,116.316 251.060 C 116.903 250.971,116.328 250.900,115.039 250.902 C 113.750 250.904,113.270 250.977,113.972 251.064 M139.751 251.058 C 140.237 251.151,140.940 251.147,141.313 251.050 C 141.687 250.952,141.289 250.875,140.430 250.880 C 139.570 250.884,139.265 250.964,139.751 251.058 M285.454 251.058 C 285.940 251.151,286.643 251.147,287.016 251.050 C 287.390 250.952,286.992 250.875,286.133 250.880 C 285.273 250.884,284.968 250.964,285.454 251.058 M310.411 251.074 C 310.311 251.235,311.136 251.316,312.244 251.254 C 315.573 251.068,315.979 250.891,313.207 250.834 C 311.769 250.805,310.511 250.913,310.411 251.074 M322.363 251.066 C 323.169 251.150,324.487 251.150,325.293 251.066 C 326.099 250.982,325.439 250.913,323.828 250.913 C 322.217 250.913,321.558 250.982,322.363 251.066 M98.981 256.250 C 98.981 259.150,99.043 260.337,99.118 258.887 C 99.193 257.437,99.193 255.063,99.118 253.613 C 99.043 252.163,98.981 253.350,98.981 256.250 M257.967 261.914 C 257.967 264.922,258.029 266.101,258.103 264.534 C 258.177 262.967,258.177 260.506,258.102 259.065 C 258.027 257.624,257.966 258.906,257.967 261.914 M290.009 264.648 C 290.009 269.160,290.066 270.952,290.135 268.631 C 290.205 266.310,290.204 262.618,290.135 260.428 C 290.065 258.238,290.009 260.137,290.009 264.648 M213.821 261.914 C 213.822 264.492,213.885 265.496,213.961 264.145 C 214.038 262.794,214.037 260.684,213.960 259.457 C 213.883 258.230,213.820 259.336,213.821 261.914 M303.253 259.961 C 303.255 261.465,303.326 262.032,303.410 261.222 C 303.495 260.411,303.493 259.181,303.407 258.487 C 303.321 257.794,303.251 258.457,303.253 259.961 M112.254 261.719 C 112.254 263.975,112.318 264.897,112.397 263.770 C 112.476 262.642,112.476 260.796,112.397 259.668 C 112.318 258.540,112.254 259.463,112.254 261.719 M266.552 261.914 C 266.553 264.277,266.618 265.194,266.695 263.951 C 266.773 262.707,266.772 260.774,266.694 259.654 C 266.615 258.534,266.551 259.551,266.552 261.914 M107.561 261.523 C 107.559 263.457,107.625 264.297,107.707 263.391 C 107.789 262.484,107.790 260.902,107.709 259.875 C 107.629 258.848,107.562 259.590,107.561 261.523 M248.191 262.109 C 248.191 264.365,248.256 265.288,248.335 264.160 C 248.414 263.032,248.414 261.187,248.335 260.059 C 248.256 258.931,248.191 259.854,248.191 262.109 M102.070 261.719 C 102.070 262.900,102.143 263.384,102.233 262.793 C 102.322 262.202,102.322 261.235,102.233 260.645 C 102.143 260.054,102.070 260.537,102.070 261.719 M272.949 260.048 C 273.647 260.135,274.790 260.135,275.488 260.048 C 276.187 259.962,275.615 259.891,274.219 259.891 C 272.822 259.891,272.251 259.962,272.949 260.048 M293.910 266.211 C 293.909 269.863,293.968 271.410,294.040 269.648 C 294.113 267.886,294.113 264.898,294.041 263.007 C 293.969 261.117,293.910 262.559,293.910 266.211 M125.927 264.245 C 125.807 264.560,125.798 265.044,125.909 265.319 C 126.020 265.595,126.124 265.431,126.141 264.956 C 126.170 264.133,126.359 264.085,129.980 263.963 L 133.789 263.835 129.968 263.754 C 126.917 263.688,126.103 263.787,125.927 264.245 M253.614 265.039 C 253.618 265.898,253.698 266.204,253.792 265.718 C 253.885 265.232,253.882 264.529,253.784 264.156 C 253.686 263.782,253.610 264.180,253.614 265.039 M274.121 263.961 C 275.464 264.037,277.661 264.037,279.004 263.961 C 280.347 263.885,279.248 263.822,276.563 263.822 C 273.877 263.822,272.778 263.885,274.121 263.961 M170.108 265.906 C 171.392 265.991,172.592 266.270,172.774 266.526 C 173.007 266.853,173.059 266.817,172.948 266.406 C 172.829 265.968,172.159 265.812,170.281 265.786 L 167.773 265.752 170.108 265.906 M78.385 266.667 C 78.242 266.810,78.128 267.118,78.131 267.350 C 78.135 267.614,78.249 267.597,78.436 267.303 C 78.615 267.022,79.984 266.779,81.848 266.698 L 84.961 266.563 81.803 266.485 C 80.067 266.442,78.529 266.523,78.385 266.667 M200.500 266.694 C 201.527 266.775,203.109 266.774,204.016 266.692 C 204.922 266.610,204.082 266.544,202.148 266.545 C 200.215 266.546,199.473 266.613,200.500 266.694 M164.727 268.222 C 165.451 268.379,165.610 268.727,165.740 270.435 L 165.895 272.461 165.858 270.313 C 165.823 268.309,165.754 268.160,164.844 268.100 C 164.022 268.046,164.003 268.066,164.727 268.222 M303.246 270.508 C 303.248 271.797,303.321 272.277,303.408 271.575 C 303.495 270.873,303.493 269.818,303.404 269.231 C 303.315 268.644,303.244 269.219,303.246 270.508 M143.856 271.094 C 143.856 272.061,143.933 272.456,144.026 271.973 C 144.119 271.489,144.119 270.698,144.026 270.215 C 143.933 269.731,143.856 270.127,143.856 271.094 M191.896 272.266 C 192.012 272.697,192.664 272.861,194.367 272.888 L 196.680 272.925 194.540 272.767 C 193.363 272.680,192.251 272.400,192.069 272.144 C 191.837 271.820,191.785 271.857,191.896 272.266 M73.145 272.926 C 73.521 273.024,74.136 273.024,74.512 272.926 C 74.888 272.827,74.580 272.747,73.828 272.747 C 73.076 272.747,72.769 272.827,73.145 272.926 M311.877 276.713 C 311.763 277.011,311.738 278.022,311.821 278.959 L 311.973 280.664 312.041 278.642 C 312.094 277.081,312.265 276.579,312.793 276.441 C 313.434 276.274,313.433 276.260,312.781 276.217 C 312.398 276.192,311.991 276.415,311.877 276.713 M104.786 277.930 C 104.790 278.789,104.870 279.095,104.964 278.609 C 105.057 278.123,105.054 277.420,104.956 277.046 C 104.858 276.673,104.782 277.070,104.786 277.930 M150.488 288.551 C 150.864 288.649,151.479 288.649,151.855 288.551 C 152.231 288.452,151.924 288.372,151.172 288.372 C 150.420 288.372,150.112 288.452,150.488 288.551 M159.473 288.551 C 159.849 288.649,160.464 288.649,160.840 288.551 C 161.216 288.452,160.908 288.372,160.156 288.372 C 159.404 288.372,159.097 288.452,159.473 288.551 M95.471 294.727 C 95.471 298.164,95.531 299.518,95.603 297.735 C 95.676 295.953,95.676 293.140,95.603 291.485 C 95.529 289.831,95.470 291.289,95.471 294.727 M106.795 297.070 C 106.795 300.078,106.857 301.257,106.931 299.690 C 107.005 298.123,107.005 295.662,106.930 294.221 C 106.855 292.780,106.794 294.063,106.795 297.070 M97.415 297.070 C 97.416 299.648,97.479 300.652,97.555 299.301 C 97.632 297.950,97.631 295.841,97.554 294.614 C 97.477 293.387,97.414 294.492,97.415 297.070 M158.932 293.262 C 158.854 293.638,158.887 295.703,159.006 297.852 L 159.224 301.758 159.299 297.168 C 159.371 292.843,159.262 291.688,158.932 293.262 M246.484 292.940 C 246.484 293.139,246.177 293.382,245.801 293.481 C 245.286 293.615,245.335 293.671,245.996 293.705 C 246.537 293.733,246.875 293.525,246.875 293.164 C 246.875 292.842,246.787 292.578,246.680 292.578 C 246.572 292.578,246.484 292.741,246.484 292.940 M172.799 297.852 C 172.800 300.000,172.866 300.829,172.945 299.694 C 173.024 298.559,173.023 296.801,172.943 295.788 C 172.863 294.774,172.798 295.703,172.799 297.852 M113.813 298.047 C 113.813 300.088,113.879 300.923,113.959 299.902 C 114.039 298.882,114.039 297.212,113.959 296.191 C 113.879 295.171,113.813 296.006,113.813 298.047 M161.076 298.242 C 161.075 300.176,161.141 301.016,161.223 300.109 C 161.305 299.203,161.306 297.621,161.225 296.594 C 161.144 295.567,161.077 296.309,161.076 298.242 M217.677 296.680 C 217.681 297.539,217.761 297.845,217.854 297.359 C 217.948 296.873,217.944 296.170,217.847 295.796 C 217.749 295.423,217.672 295.820,217.677 296.680 M219.630 296.680 C 219.634 297.539,219.714 297.845,219.808 297.359 C 219.901 296.873,219.897 296.170,219.800 295.796 C 219.702 295.423,219.625 295.820,219.630 296.680 M104.794 297.656 C 104.794 298.623,104.870 299.019,104.963 298.535 C 105.056 298.052,105.056 297.261,104.963 296.777 C 104.870 296.294,104.794 296.689,104.794 297.656 M205.371 296.760 C 205.854 296.853,206.646 296.853,207.129 296.760 C 207.612 296.667,207.217 296.591,206.250 296.591 C 205.283 296.591,204.888 296.667,205.371 296.760 M303.622 299.609 C 303.622 300.576,303.698 300.972,303.791 300.488 C 303.884 300.005,303.884 299.214,303.791 298.730 C 303.698 298.247,303.622 298.643,303.622 299.609 M294.050 298.721 C 294.752 298.808,295.807 298.806,296.394 298.717 C 296.981 298.627,296.406 298.556,295.117 298.559 C 293.828 298.561,293.348 298.634,294.050 298.721 M278.662 304.089 C 278.541 304.404,278.533 304.887,278.643 305.163 C 278.754 305.439,278.858 305.283,278.875 304.818 C 278.892 304.352,279.126 303.883,279.395 303.774 C 279.777 303.620,279.774 303.571,279.382 303.546 C 279.107 303.530,278.783 303.773,278.662 304.089 " stroke="none" fill="#c9d9e1" fill-rule="evenodd"></path></g></svg>